<svg xmlns="http://www.w3.org/2000/svg" viewBox="0 0 150 133">
<!-- SVG created with Arrow, by QuiverAI (https://quiver.ai) -->
  <style type="text/css">.cls-0 {fill:#F5ECDC;}
.cls-1 {fill:none;stroke:#C2B59B;stroke-width:1.2;stroke-linecap:round;stroke-linejoin:round;stroke-miterlimit:10;}
.cls-2 {fill:none;stroke:#C2B59B;stroke-width:0.75;stroke-linecap:round;stroke-linejoin:round;stroke-miterlimit:10;}
.cls-3 {fill:none;stroke:#C2B59B;stroke-width:0.5;stroke-linecap:round;stroke-linejoin:round;stroke-miterlimit:10;}
.cls-4 {fill:none;stroke:#C2B59B;stroke-width:0.4;stroke-linecap:round;stroke-linejoin:round;stroke-miterlimit:10;}
.cls-5 {fill:none;stroke:#C2B59B;stroke-width:0.6;stroke-linecap:round;stroke-linejoin:round;stroke-miterlimit:10;}
.cls-6 {fill:none;stroke:#C2B59B;stroke-width:0.3;stroke-linecap:round;stroke-linejoin:round;stroke-miterlimit:10;}</style>
  <path class="cls-1" d="m91.7 29.4c-0.5-7.2-1-18.4 4.2-22.5 7.8-6.3 13.1-1.5 14.9 4.3 2.3 6 0.3 14.2-5.8 19.3l-3.9 2.5"/>
  <path class="cls-1" d="m122 70.8c10.4-1.5 23.6-10.5 23.9-27.6-0.1-9.3-8.4-16.3-15.9-10.8-3.8 2.5-6.9 8.9-7.8 14.1-0.6 3.8-3.8 8.2-3.8 8.2"/>
  <path class="cls-1" d="m52.5 32.3c-1.2-5.4-0.5-10.5-5.2-16.9-1.9-2.6-9-5.1-12.8 0-3.9 5.1-2 14.4 3.1 18.3l6.7 4.1"/>
  <path class="cls-1" d="m36.6 84c-6 3.3-16.5 3.1-23.6-3.1-4.8-3.8-10.4-12-6.6-21.5 2.5-6 11.5-6.3 15.3-1.1 3.1 3.7 4.3 10 12 15.3l2.9 2.5"/>
  <path class="cls-1" d="m29.8 86.4c1.4 9.2 4.5 20.3 15.1 28.5 5.3 5.1 15.2 10.2 30.9 11.4 11.7 0 24.1-3.8 32.3-10.7 4.8-3.8 8.5-9.5 10.4-15.7 1.9-6.3 3.8-9.4 3.8-25-0.6-7.5-2.5-15.7-5-22l-8.6-12.9c-6.9-7.6-15.2-10.7-21.5-11-3.8 0-6-0.6-11.4 3.1"/>
  <path class="cls-1" d="m73.2 32.4c-3.2-3.7-11.1-7.5-11.1-3.4"/>
  <path class="cls-1" d="m75.8 32.1c2.6-2.5 10.1-6.2 11.4-3.1"/>
  <path class="cls-1" d="m72.6 27.7c1.2-3.4 5.1-2.1 4.5-0.3"/>
  <path class="cls-1" d="m67.6 27.4c1.5-2.2 5.3-0.6 5.6 2.5"/>
  <path class="cls-1" d="m75.8 30.2c3.1-4.7 5.7-5.3 7.3-2.8"/>
  <path class="cls-1" d="m42.2 40.6-2.8 3.1c-1.9 3.2-5.4 7.6-6.3 10.2-1.2 4.4-3.7 8.2-3.2 13.2l-0.2 3.2"/>
  <path class="cls-1" d="m43.4 38.7c6.3-6.9 15.2-10 22.1-9.1 2.8 0.6 5.6 2.2 6.5 2.8"/>
  <path class="cls-1" d="m72 32.4c-3.1-0.6-7.5-1.5-17.1 3.8-5 3.1-9.8 11.3-11.8 15.4-1.2 2.7-3 6.7-3.4 9.2-1.6 5.7-2.5 6.9-3.1 16 0 3.8-0.6 17.5 3.5 25.4 4.4 6.9 7.5 15.5 16.2 19.9"/>
  <path class="cls-1" d="m71.9 32.4c-7.6 0-15.3 10.1-19.4 21.9-2.4 5-5.2 18.5-5.2 25.3l0.8 10.9c2 11.3 6.8 28.8 17.7 33.8"/>
  <path class="cls-1" d="m76.1 32.4c4.1 0 7.3 1 10.5 3.5 3.8 3.4 11.3 13.4 13 21.5 2.2 3.1 3.5 16 3.5 22.2 0.6 6.9-1.2 24.1-6.5 32.8-3.8 5.3-9.1 12.5-12.9 12.5"/>
  <path class="cls-1" d="m73.1 32.4c-2.8 1.9-7.6 14.1-8.2 21.3-1.2 3.7-2.3 16.6-1.8 30.3l1.8 17.2c1.2 5.3 2.7 21.2 9.4 24.7"/>
  <path class="cls-1" d="m75.5 32.4c3.4 1.3 7 11.9 8.8 19.4 1.8 6.3 3.2 17.2 2.9 30.6 0 8.2-1.7 24.1-3.5 31.9-1.2 5-4.4 10.6-6.2 11.6"/>
  <path class="cls-2" d="m72.5 32.4c3.3-1.5 5.1 1.6-2.5 0.3"/>
  <path class="cls-3" d="m75.8 32.1c3.2-0.6 5.8-2.2 10.1-1.2"/>
  <path class="cls-4" d="m8.9 56.1-1.5-2.5"/>
  <path class="cls-4" d="m13.7 54.6 0.2-2.5"/>
  <path class="cls-4" d="m18.9 55.6v-1.7"/>
  <path class="cls-4" d="m24.1 63.1 1.5-2.2"/>
  <path class="cls-4" d="m29.9 65.9-2.3-0.5"/>
  <path class="cls-4" d="m30.4 62.9-1.3-2.3"/>
  <path class="cls-4" d="m33.9 57.1-3.8-3.5"/>
  <path class="cls-4" d="m33.4 53.9-1.3-2"/>
  <path class="cls-4" d="m38.7 44.1-0.6-2.3"/>
  <path class="cls-4" d="m37.6 46.4-1.2-1.8"/>
  <path class="cls-4" d="m47.6 16.1 1.3-1.8"/>
  <path class="cls-4" d="m41.9 12.4 0.3-2.7"/>
  <path class="cls-4" d="m35.6 13.9c-0.7-0.3-1.7-2.3-1.7-2.5"/>
  <path class="cls-4" d="m32.1 22.6-2.2-0.2"/>
  <path class="cls-4" d="m31.9 20.9-1.8-1.8"/>
  <path class="cls-4" d="m49.9 23.4 2.7-2.3"/>
  <path class="cls-4" d="m56.9 30.1-0.3-1.7"/>
  <path class="cls-4" d="m58.9 30.4-0.5-3.3"/>
  <path class="cls-4" d="m65.4 26.6-0.8-1.7"/>
  <path class="cls-4" d="m70.9 25.9-0.3-1.5"/>
  <path class="cls-4" d="m73.9 24.9v-1"/>
  <path class="cls-4" d="m79.1 25.9v-1"/>
  <path class="cls-4" d="m81.1 25.9 0.3-1"/>
  <path class="cls-4" d="m86.4 27.6v-2.2"/>
  <path class="cls-4" d="m86.9 28.4 1.5-2.8"/>
  <path class="cls-4" d="m99.1 4.4-0.5-1.5"/>
  <path class="cls-4" d="m94.4 8.4-1.8-1.5"/>
  <path class="cls-4" d="m92.1 12.6-1.2-1"/>
  <path class="cls-4" d="m107.6 6.9 1.8-2"/>
  <path class="cls-4" d="m110.6 11.6 1.8-1"/>
  <path class="cls-4" d="m109.4 21.6 3-1.5"/>
  <path class="cls-4" d="m106.4 28.4h1.5"/>
  <path class="cls-4" d="m103.7 36.4 2.9-3.3"/>
  <path class="cls-4" d="m103.6 36.4 3-2"/>
  <path class="cls-4" d="m111.4 42.6 1.5-2"/>
  <path class="cls-4" d="m112.6 44.9 1.3-2.3"/>
  <path class="cls-4" d="m112.9 45.9 1.7-1"/>
  <path class="cls-4" d="m116.6 51.9 2-1.8"/>
  <path class="cls-4" d="m122.1 45.9-2-1.8"/>
  <path class="cls-4" d="m126.1 37.9-1.5-2"/>
  <path class="cls-4" d="m130.1 33.4-2-2.8"/>
  <path class="cls-4" d="m135.9 30.4 0.5-3"/>
  <path class="cls-4" d="m141.6 32.6 1.5-3"/>
  <path class="cls-4" d="m141.9 32.4 2.5-1.3"/>
  <path class="cls-4" d="m144.4 41.9 3.5-1.3"/>
  <path class="cls-4" d="m144.6 50.9 2.3-0.3"/>
  <path class="cls-4" d="m138.6 61.1h2.5"/>
  <path class="cls-4" d="m137.1 63.1 2.3 0.5"/>
  <path class="cls-4" d="m133.4 67.6 0.2 0.3h-0.2v-0.3l0.2 0.3"/>
  <path class="cls-4" d="m121.4 79.1 1.5-1.2"/>
  <path class="cls-4" d="m120.6 90.1 3.3-1.5"/>
  <path class="cls-4" d="m117.9 99.1 2.5-1.2"/>
  <path class="cls-4" d="m116.9 102.4 3-0.3"/>
  <path class="cls-4" d="m113.9 107.9 3-0.3"/>
  <path class="cls-4" d="m112.4 110.1 2.7 0.8"/>
  <path class="cls-4" d="m105.1 117.9h4"/>
  <path class="cls-4" d="m32.9 100.9-2.8-0.3"/>
  <path class="cls-4" d="m30.4 90.9-2.3-1.3"/>
  <path class="cls-4" d="m25.9 88.1-0.3-1.7"/>
  <path class="cls-4" d="m20.9 87.9 0.7-2"/>
  <path class="cls-4" d="m14.9 85.1 2-1.2"/>
  <path class="cls-4" d="m7.6 79.6 2.3-1.2"/>
  <path class="cls-4" d="m6.1 76.1 1.3-1.7"/>
  <path class="cls-4" d="m4.9 65.1-2-0.5"/>
  <path class="cls-4" d="m5.4 61.1-1.3-1"/>
  <path class="cls-4" d="m16.9 86.6s0-2 1-3"/>
  <path class="cls-5" d="m34.1 33.6"/>
  <path class="cls-4" d="m34.1 33.6"/>
  <path class="cls-4" d="m34.1 33.6"/>
  <path class="cls-4" d="m34.1 33.6"/>
  <path class="cls-3" d="m34.1 33.6"/>
  <path class="cls-3" d="m34.1 33.6"/>
  <path class="cls-4" d="m34.1 33.6"/>
  <path class="cls-4" d="m34.1 33.6"/>
  <path class="cls-3" d="m34.1 33.6"/>
  <path class="cls-4" d="m34.1 33.6"/>
  <path class="cls-4" d="m34.1 33.6"/>
  <path class="cls-4" d="m34.1 33.6"/>
  <path class="cls-3" d="m34.1 33.6"/>
  <path class="cls-6" d="m33.9 33.6s1.7 0 2.7-0.5"/>
  <path class="cls-5" d="m37.1 112.1 2.8-1"/>
  <path class="cls-6" d="m44.6 118.4c1.5-0.5 3 0 3 0"/>
  <path class="cls-6" d="m49.4 131.4c8.5 0 19 1 26 0.7l9-0.7 10.7-0.8"/>
  <path class="cls-6" d="m36.6 129.4 8 0.2 26.3-0.5 15-0.7 21.5 0.7v-0.5"/>
  <path class="cls-6" d="m30.1 128.1 14.3-0.2 15.5 0.5 20.5-0.3 37.2-1"/>
  <path class="cls-6" d="m14.1 126.4 10.3-0.8 16.2 0.3 13 0.5 21.5 0.7 30-0.7 14-0.3"/>
  <path class="cls-6" d="m19.4 125.6 20.5-0.2 23 0.5 12.2 0.7 16.8-0.7 25-1v-0.3"/>
  <path class="cls-6" d="m16.9 125.1 18-0.7 18.5 0.2 20.7 1.8 23-0.8 17.3-2 20-0.5"/>
  <path class="cls-6" d="m19.4 124.1 17.7-0.5 14.5 0.3 23.3 2 30.2-0.5 8.3-1.8 14.2-0.7"/>
  <path class="cls-6" d="m21.6 123.6 22.3-0.2 17.2 1.2 14 1.3 18-1.3 12-1 16.8-2.5"/>
  <path class="cls-6" d="m28.1 121.9 16.3-0.3 13.7 0.8 17 2.5 25-1.3 17.5-3.5"/>
  <path class="cls-6" d="m28.9 121.1 12.7-0.2 13.5 0.7 18.8 2.8 18.2-0.8 13.8-2.2 15.7-0.5"/>
  <path class="cls-6" d="m34.6 120.4 12.3-0.3 18.2 2 10 2.3 18.5-1.3 10.8-2 12.5-1"/>
  <path class="cls-6" d="m36.6 121.4 11.3-0.8 18.5 2.3 8.7 1.5 14.3-2 16-2.8 12-0.7"/>
  <path class="cls-6" d="m34.9 120.1 10.2-0.5 16.3 2 13.7 2.8 16.8-2 11.2-2.8 13.3-1"/>
  <path class="cls-6" d="m132.9 117.9 5.5-0.3"/>
  <path class="cls-6" d="m40.4 13.4c0.2 1 1.2 2 1.2 2"/>
  <path class="cls-6" d="m42.6 17.4 1 3.5"/>
  <path class="cls-6" d="m36.9 14.6c-0.8 0.5-1.3 2.8-1.3 2.8"/>
  <path class="cls-6" d="m34.9 20.6 1 1.3"/>
  <path class="cls-6" d="m37.9 23.1c1.2 1.5 2.5 1.8 2.5 1.5l-0.3-1.7"/>
  <path class="cls-6" d="m43.9 25.4c0.2 1 1.7 1.2 1.7 1.2"/>
  <path class="cls-6" d="m45.6 24.1 0.3 2.3"/>
  <path class="cls-6" d="m48.9 27.6v1.8"/>
  <path class="cls-6" d="m49.9 30.1 0.5 3"/>
  <path class="cls-6" d="m48.6 33.6-1.7-3.2"/>
  <path class="cls-6" d="m45.6 30.9-1.5-1.8"/>
  <path class="cls-6" d="m44.1 29.1"/>
  <path class="cls-6" d="m43.9 30.1"/>
  <path class="cls-6" d="m48.4 33.9-2.8-3.8"/>
  <path class="cls-6" d="m49.9 33.6-2-4.2"/>
  <path class="cls-6" d="m49.4 34.4-3.5-5"/>
  <path class="cls-6" d="m47.6 35.1-2-4.2"/>
  <path class="cls-6" d="m47.1 35.4-2.5-3.8"/>
  <path class="cls-6" d="m46.6 35.6-5-6.2"/>
  <path class="cls-6" d="m45.9 36.1-4-4.5"/>
  <path class="cls-6" d="m45.6 36.4c-0.2-0.3-4.7-4.8-4.7-4.8"/>
  <path class="cls-6" d="m44.9 36.9-4.8-5.3"/>
  <path class="cls-6" d="m44.6 36.9-4.7-5.5"/>
  <path class="cls-6" d="m44.1 37.1-4.7-5.5"/>
  <path class="cls-6" d="m43.4 37.4-4.3-5"/>
  <path class="cls-6" d="m38.1 32.4-3.7-5.3"/>
  <path class="cls-6" d="m36.4 27.6-2.5-6"/>
  <path class="cls-6" d="m36.4 27.6-1.5-1.2"/>
  <path class="cls-6" d="m37.1 21.4-0.7-1.8"/>
  <path class="cls-6" d="m44.6 21.6 0.3 0.3"/>
  <path class="cls-6" d="m45.1 21.6-0.5-2"/>
  <path class="cls-6" d="m101.4 4.9-0.5 1.5"/>
  <path class="cls-6" d="m99.9 7.4-0.8 1"/>
  <path class="cls-6" d="m102.9 8.9v2.7"/>
  <path class="cls-6" d="m103.4 9.6-0.5 1.8"/>
  <path class="cls-6" d="m96.9 11.6-0.3 3"/>
  <path class="cls-6" d="m95.6 12.4 1.3 2.2"/>
  <path class="cls-6" d="m94.6 16.9-0.5 1.7"/>
  <path class="cls-6" d="m95.6 19.9-1.2 9.2"/>
  <path class="cls-6" d="m95.6 24.4-1 5"/>
  <path class="cls-6" d="m95.6 20.4-1 9"/>
  <path class="cls-6" d="m93.6 24.6-0.7 4.8"/>
  <path class="cls-6" d="m92.1 25.4-0.5 4.2"/>
  <path class="cls-6" d="m102.1 16.9h-0.5"/>
  <path class="cls-6" d="m102.1 19.1 0.3-3.5"/>
  <path class="cls-6" d="m101.1 17.1 0.5 1.8"/>
  <path class="cls-6" d="m98.7 21.6h-0.6"/>
  <path class="cls-6" d="m98.7 21.1-0.6 0.5"/>
  <path class="cls-6" d="m97.6 24.6-1 4"/>
  <path class="cls-6" d="m98.4 24.6-1.5 4.8"/>
  <path class="cls-6" d="m99.1 27.1-3 3.3"/>
  <path class="cls-6" d="m100.6 23.9-3 6"/>
  <path class="cls-6" d="m102.1 24.1-4.2 7"/>
  <path class="cls-6" d="m103.4 25.9-4.3 5.7"/>
  <path class="cls-6" d="m107.4 16.6-0.8 2.3"/>
  <path class="cls-6" d="m108.1 17.1-1.2 1.8"/>
  <path class="cls-6" d="m107.4 19.4c-1.5 6.7-4.8 9.7-8.3 12.7"/>
  <path class="cls-6" d="m106.9 23.1-5.3 8.5"/>
  <path class="cls-6" d="m106.9 25.1-5.3 6.5"/>
  <path class="cls-6" d="m105.6 26.4-4.5 5.5"/>
  <path class="cls-6" d="m108.4 12.1-1.3 1.3"/>
  <path class="cls-6" d="m104.1 21.9-0.5 1.5"/>
  <path class="cls-6" d="m101.6 26.6 2-1"/>
  <path class="cls-6" d="m134.9 32.4 0.2 2.5"/>
  <path class="cls-6" d="m134.4 32.9 0.7 2"/>
  <path class="cls-6" d="m133.4 35.1 0.2-0.5"/>
  <path class="cls-6" d="m133.4 35.1 0.2-0.5"/>
  <path class="cls-6" d="m133.4 35.1 0.2 0.8"/>
  <path class="cls-6" d="m135.4 33.6-0.3 1"/>
  <path class="cls-6" d="m139.4 36.4v1.5"/>
  <path class="cls-6" d="m141.4 36.1-1.8 1.8"/>
  <path class="cls-6" d="m141.6 40.6-2.2 5.3"/>
  <path class="cls-6" d="m144.1 43.1c-0.2 4-2.5 7-2.5 7"/>
  <path class="cls-6" d="m142.6 47.1-1.2 3"/>
  <path class="cls-6" d="m143.1 49.1-5.5 7.3"/>
  <path class="cls-6" d="m140.4 55.4-6 7"/>
  <path class="cls-6" d="m139.1 56.4-6.5 7.2"/>
  <path class="cls-6" d="m137.4 56.4-6 7"/>
  <path class="cls-6" d="m139.1 50.1-4.5 6.3-9 8.2"/>
  <path class="cls-6" d="m138.4 52.4-5.8 7"/>
  <path class="cls-6" d="m136.9 54.1-5.5 6"/>
  <path class="cls-6" d="m133.4 50.6 0.2 0.5"/>
  <path class="cls-6" d="m133.6 51.1-0.2-0.5"/>
  <path class="cls-6" d="m133.6 51.1-0.5 1.3"/>
  <path class="cls-6" d="m133.1 56.4-1.7 2.2"/>
  <path class="cls-6" d="m130.9 57.6-7.5 7"/>
  <path class="cls-6" d="m130.4 58.4-7.8 7.2"/>
  <path class="cls-6" d="m128.4 57.9-7.3 7"/>
  <path class="cls-6" d="m127.4 58.4-6.5 6.7"/>
  <path class="cls-6" d="m125.9 57.4-5 6"/>
  <path class="cls-6" d="m126.4 52.4-5.3 7"/>
  <path class="cls-6" d="m127.6 47.1-2 3.5"/>
  <path class="cls-6" d="m125.9 44.9-6.5 12.5"/>
  <path class="cls-6" d="m128.4 55.1-1 0.5"/>
  <path class="cls-6" d="m128.1 53.9-0.7 1.7"/>
  <path class="cls-6" d="m124.6 44.9-2.2 7.5-3 5"/>
  <path class="cls-6" d="m124.4 53.1-5 6.3"/>
  <path class="cls-6" d="m124.4 53.9-4.8 5.2"/>
  <path class="cls-6" d="m122.4 59.4-2.3 2"/>
  <path class="cls-6" d="m135.4 37.4-0.5 3.5"/>
  <path class="cls-6" d="m136.4 38.6-1.5 2.8"/>
  <path class="cls-6" d="m10.4 56.9-1.3-1"/>
  <path class="cls-6" d="m8.9 61.6 0.7 2.3"/>
  <path class="cls-6" d="m6.9 61.1 0.2 5.3"/>
  <path class="cls-6" d="m6.6 66.6 2.5 6.5 4.5 5.3c4.3 3.5 10 6.5 16.3 6.5"/>
  <path class="cls-6" d="m6.9 66.4c1.2 5 6.7 12 12.7 16.2"/>
  <path class="cls-6" d="m7.9 66.9c2 5.5 8.5 12.5 13.7 14.5"/>
  <path class="cls-6" d="m8.1 67.4 3.5 7 6.8 6c4 2.5 10.2 4.2 16.5 3.7"/>
  <path class="cls-6" d="m9.1 69.1 4.5 6"/>
  <path class="cls-6" d="m10.6 69.1 4.3 5.3"/>
  <path class="cls-6" d="m9.6 68.9 1.5-1.8"/>
  <path class="cls-6" d="m11.1 68.4-0.5-1.3"/>
  <path class="cls-6" d="m10.4 62.6 0.7 2.3"/>
  <path class="cls-6" d="m11.9 65.6 3 3.3"/>
  <path class="cls-6" d="m14.4 73.1 2.5 2.3"/>
  <path class="cls-6" d="m12.1 77.9h-1.2"/>
  <path class="cls-6" d="m14.9 75.6 5.5 5"/>
  <path class="cls-6" d="m16.4 74.4 6.7 5"/>
  <path class="cls-6" d="m16.9 73.6v0.8"/>
  <path class="cls-6" d="m18.4 70.1 1.7 1.5"/>
  <path class="cls-6" d="m19.9 69.4 0.2 2.2"/>
  <path class="cls-6" d="m21.6 64.9 0.3 1.5"/>
  <path class="cls-6" d="m24.1 73.9 5.8 3.5"/>
  <path class="cls-6" d="m22.6 75.6 1.5 0.8"/>
  <path class="cls-6" d="m23.1 79.1 1.8 1.3"/>
  <path class="cls-6" d="m23.9 78.9 9 3.2"/>
  <path class="cls-6" d="m24.4 81.4c3.2 1.2 12 2 12 2"/>
  <path class="cls-6" d="m26.9 77.9 7.7 2.7"/>
  <path class="cls-6" d="m27.6 78.4 8.5 3"/>
  <path class="cls-6" d="m32.1 76.1 2.3 1.3"/>
  <path class="cls-6" d="m31.9 77.4c1 0.5 4.2 1.7 4.2 1.7"/>
  <path class="cls-6" d="m35.4 55.1c-3 6-3 11.3-2 18.5"/>
  <path class="cls-6" d="m37.6 54.9c-2.7 6-4 13.5-3.2 18.7"/>
  <path class="cls-6" d="m38.4 56.9-4 15.7"/>
  <path class="cls-6" d="m37.1 59.4-2.7 14.2"/>
  <path class="cls-6" d="m38.1 59.4-2.7 11.2"/>
  <path class="cls-6" d="m37.6 57.1 1.3 2.5"/>
  <path class="cls-6" d="m36.1 59.4-1.7 3.2"/>
  <path class="cls-6" d="m32.4 64.6v7.8"/>
  <path class="cls-6" d="m31.4 66.4-0.5 4.5"/>
  <path class="cls-6" d="m44.1 44.6-7 11.5"/>
  <path class="cls-6" d="m45.1 45.1-7.2 11.8"/>
  <path class="cls-6" d="m46.4 45.6-5.8 9.8"/>
  <path class="cls-6" d="m53.1 33.6c-3 2.5-5.2 6-5.2 6"/>
  <path class="cls-6" d="m48.6 39.6-3.7 3.8"/>
  <path class="cls-6" d="m61.4 30.6c-4.5 1.8-8.5 4.8-8.5 4.8"/>
  <path class="cls-6" d="m64.9 30.6c-3.8 2-14.3 7.5-17 12.5"/>
  <path class="cls-6" d="m65.4 31.9-6 5"/>
  <path class="cls-6" d="m67.1 32.4-6.7 5.2"/>
  <path class="cls-6" d="m69.6 32.4c-4 2.5-10 6.5-12.7 10.5-2.8 4-6.5 10.5-7.8 14.2"/>
  <path class="cls-6" d="m70.4 32.4c-3.3 3-9.3 8.7-12 12.7l-6.5 11.3"/>
  <path class="cls-6" d="m70.9 32.6-6 10"/>
  <path class="cls-6" d="m72.1 33.4-5.7 11.5"/>
  <path class="cls-6" d="m72.6 33.9-5.2 10.7"/>
  <path class="cls-6" d="m73.4 33.4-3.8 11.5"/>
  <path class="cls-6" d="m75.1 32.9 1.8 8.5"/>
  <path class="cls-6" d="m76.9 33.4c2.5 1.5 4.7 5.2 4.7 5.2"/>
  <path class="cls-6" d="m77.6 32.4c2.5 1.5 5.5 5.5 5.5 5.5"/>
  <path class="cls-6" d="m78.4 32.4c3 1.5 6.2 5.2 6.2 5.2"/>
  <path class="cls-6" d="m80.1 32.1c3.8 1.5 6 4.3 6 4.3"/>
  <path class="cls-6" d="m82.1 31.6 6.5 3.3"/>
  <path class="cls-6" d="m87.6 31.6 6 3"/>
  <path class="cls-6" d="m91.6 31.6 6 3.8"/>
  <path class="cls-6" d="m93.1 31.4 4.5 3.2"/>
  <path class="cls-6" d="m96.1 31.9 5 3.5"/>
  <path class="cls-6" d="m98.4 36.6 9.2 9"/>
  <path class="cls-6" d="m99.1 36.4 8.5 10.7"/>
  <path class="cls-6" d="m48.6 49.9 6.3-7.3c4.5-5.7 9.2-9.7 12-10.5"/>
  <path class="cls-6" d="m48.1 51.1 5.3-6.7 3.5-4.3 4.2-4.5"/>
  <path class="cls-6" d="m47.9 53.9 5.5-8.3"/>
  <path class="cls-6" d="m47.1 57.6 5.8-10.7"/>
  <path class="cls-6" d="m43.4 62.6 4.2-9.5"/>
  <path class="cls-6" d="m43.4 67.9 6-14.5"/>
  <path class="cls-6" d="m42.9 76.1 5.7-18.2"/>
  <path class="cls-6" d="m42.9 75.9 4.7-17"/>
  <path class="cls-6" d="m41.4 91.1c2 9 6.7 18 9.2 21.3"/>
  <path class="cls-6" d="m43.4 98.6c2.5 4.8 6.2 12.8 10 17.3"/>
  <path class="cls-6" d="m47.6 104.6c3.5 6.3 9.5 13.8 14.5 17.3"/>
  <path class="cls-6" d="m50.1 112.4c3.3 5.2 8.8 9.5 10.8 10.5"/>
  <path class="cls-6" d="m60.4 112.9c3.7 6.2 8.2 10.5 10.5 12"/>
  <path class="cls-6" d="m65.6 114.9c3 5.7 6 9.2 7.3 10.5"/>
  <path class="cls-6" d="m71.4 114.9 3.5 10.7"/>
  <path class="cls-6" d="m75.1 115.1-0.2 10.3"/>
  <path class="cls-6" d="m80.1 110.9-4 14.5"/>
  <path class="cls-6" d="m84.1 116.6-6.5 9"/>
  <path class="cls-6" d="m86.9 116.6-6 8.3"/>
  <path class="cls-6" d="m92.1 111.6-7.7 12.3"/>
  <path class="cls-6" d="m96.1 113.6-6.2 8"/>
  <path class="cls-6" d="m98.6 112.4-4.7 9.2"/>
  <path class="cls-6" d="m103.4 113.6-6.8 7.3"/>
  <path class="cls-6" d="m106.6 112.1-5.2 6.8"/>
  <path class="cls-6" d="m102.6 108.6-5 8"/>
  <path class="cls-6" d="m109.9 109.4-6.3 7.2"/>
  <path class="cls-6" d="m107.4 108.9-5 7.5"/>
  <path class="cls-6" d="m112.4 106.6-3.5 6.8"/>
  <path class="cls-6" d="m107.1 99.6c-1.7 5.3-4.2 11.8-8.7 16.8"/>
  <path class="cls-6" d="m106.6 96.9-6.5 16.5"/>
  <path class="cls-6" d="m97.6 96.4-4.2 14.5"/>
  <path class="cls-6" d="m93.9 100.9-3.8 14"/>
  <path class="cls-6" d="m93.4 91.6-2.8 15-4.5 12.3"/>
  <path class="cls-6" d="m81.9 106.6-3.5 17.5"/>
  <path class="cls-6" d="m76.9 104.4-0.8 20.2"/>
  <path class="cls-6" d="m74.6 107.9-0.5 13"/>
  <path class="cls-6" d="m75.4 111.6-0.8 11.3"/>
  <path class="cls-6" d="m71.6 105.6 2.3 17.3"/>
  <path class="cls-6" d="m69.9 102.9 3 19.2"/>
  <path class="cls-6" d="m68.4 97.6 3.2 21.3"/>
  <path class="cls-6" d="m64.9 84.9 2 19.2"/>
  <path class="cls-6" d="m66.9 79.9v5"/>
  <path class="cls-6" d="m74.1 78.9 0.3 3.7"/>
  <path class="cls-6" d="m76.1 81.4-0.2 10"/>
  <path class="cls-6" d="m82.1 88.4-1.2 18"/>
  <path class="cls-6" d="m80.6 91.6-0.5 7"/>
  <path class="cls-6" d="m78.4 100.6v10.8"/>
  <path class="cls-6" d="m79.1 103.4-1.5 17.2"/>
  <path class="cls-6" d="m91.4 73.1 0.5 14.8"/>
  <path class="cls-6" d="m92.6 70.9 0.8 16"/>
  <path class="cls-6" d="m92.9 58.4 2.2 12"/>
  <path class="cls-6" d="m88.1 58.4 2 13"/>
  <path class="cls-6" d="m84.4 58.9 1 8"/>
  <path class="cls-6" d="m82.1 59.1 0.8 7.5"/>
  <path class="cls-6" d="m73.1 64.1 0.3 7.3"/>
  <path class="cls-6" d="m80.4 71.9 0.2 5"/>
  <path class="cls-6" d="m83.6 73.9 0.3 16"/>
  <path class="cls-6" d="m84.1 90.6 0.5 14.3"/>
  <path class="cls-6" d="m55.6 71.6v20.5"/>
  <path class="cls-6" d="m55.4 87.6"/>
  <path class="cls-6" d="m51.9 91.6 4.7 17.8"/>
  <path class="cls-6" d="m55.9 100.9 5 12.7"/>
  <path class="cls-6" d="m57.4 103.4 5.5 13"/>
  <path class="cls-6" d="m58.1 104.6 6.3 12.8"/>
  <path class="cls-6" d="m59.1 106.6 5.8 12.3"/>
  <path class="cls-6" d="m31.4 85.9c1 9.5 3.5 17.5 7.7 21.7"/>
  <path class="cls-6" d="m32.9 86.1c1.2 10.3 6 17.8 11 23.3"/>
  <path class="cls-6" d="m34.1 86.4c1 8.7 7.3 20.7 12 26.5"/>
  <path class="cls-6" d="m36.1 85.4 5.3 17.2"/>
  <path class="cls-6" d="m38.4 72.9v11"/>
  <path class="cls-6" d="m39.9 76.6-0.3 11.8"/>
  <path class="cls-6" d="m41.4 77.6v12.3"/>
  <path class="cls-6" d="m13.4 56.9 0.5 3"/>
  <path class="cls-6" d="m13.9 57.6 1.2 1.3"/>
  <path class="cls-6" d="m17.6 61.9 0.8 1.5 0.7 0.2v-1.2"/>
</svg>