<svg width="928" height="1126" version="1.1" xmlns="http://www.w3.org/2000/svg" desc="Created with imagetracer.js version 1.2.6"><path fill="rgb(0,0,0)" stroke="rgb(0,0,0)" stroke-width="1" opacity="0" d="M 0 0 L 928 0 L 928 1126 L 0 1126 L 0 0 Z M 290 103 L 280 109 Q 261 124 252 150 L 244 181 L 241 208 L 240 209 L 240 218 L 239 219 L 239 262 L 240 263 L 240 273 L 244 296 L 250 317 L 257 335 L 275 365 Q 290 382 309 395 L 335 409 L 322 436 L 313 461 L 303 494 L 290 545 L 283 580 L 283 586 L 277 620 L 277 629 L 275 639 L 275 647 L 274 648 L 274 658 L 273 659 L 273 670 L 272 671 L 271 714 L 270 715 L 270 771 L 271 772 L 271 784 Q 258 784 250 778 Q 238 767 231 751 L 225 729 L 223 711 L 222 710 L 221 694 L 220 693 L 220 685 L 217 671 Q 213 657 205 649 Q 196 636 181 629 L 165 629 L 154 636 Q 138 650 129 672 L 124 694 L 122 721 L 121 722 L 121 757 L 122 758 L 122 767 L 129 798 Q 143 840 170 871 Q 191 896 225 910 L 241 915 L 257 918 L 299 922 L 300 924 L 315 983 L 324 1008 L 348 1046 L 364 1058 Q 380 1066 399 1072 L 430 1079 L 444 1080 L 445 1081 L 458 1081 L 459 1082 L 485 1082 L 486 1081 L 497 1081 L 507 1079 Q 524 1075 537 1065 Q 555 1050 563 1025 L 566 1009 L 566 1002 L 567 1001 L 567 992 L 568 991 L 568 968 L 568 966 L 570 967 L 605 967 L 629 962 L 644 957 L 663 948 Q 681 937 697 923 Q 717 905 731 881 L 742 855 L 745 841 L 746 825 L 747 824 L 747 771 Q 745 769 746 765 Q 742 743 730 730 Q 721 716 703 711 Q 690 709 682 712 Q 667 716 658 725 Q 641 739 632 761 L 616 820 L 607 838 L 601 846 L 580 866 L 564 875 L 556 877 L 554 866 L 554 859 L 553 858 L 552 837 L 551 836 L 551 819 L 550 818 L 551 788 L 552 787 L 552 776 L 553 775 L 554 762 L 562 726 L 570 699 L 581 702 L 606 702 L 614 700 L 621 700 L 622 699 L 648 696 L 682 688 L 716 678 Q 770 658 811 624 Q 835 602 854 576 Q 869 554 879 528 L 891 491 L 900 451 L 902 433 L 903 432 L 903 425 L 904 424 L 904 417 L 905 416 L 906 400 L 907 399 L 908 373 L 909 372 L 909 353 L 910 352 L 909 298 L 908 297 L 908 288 L 907 287 L 907 279 L 905 272 L 905 267 Q 898 235 883 212 Q 869 194 845 188 L 825 188 L 813 191 Q 794 198 782 210 Q 749 239 733 285 L 728 302 L 723 330 L 723 336 L 722 337 L 721 353 L 720 354 L 720 367 L 718 377 L 718 388 L 717 389 L 717 399 L 715 410 L 715 420 L 713 431 L 713 440 L 712 441 L 711 456 L 707 478 L 703 494 L 694 519 L 686 535 L 665 563 Q 636 594 599 618 L 597 618 L 620 557 L 637 502 L 644 471 L 645 460 L 646 459 L 646 450 L 647 449 L 647 438 L 648 437 L 648 401 L 647 400 L 647 390 L 646 389 L 645 375 L 642 362 Q 632 327 611 303 Q 595 284 574 272 L 557 265 L 534 261 L 508 261 Q 506 264 501 262 L 476 268 L 458 274 L 432 289 L 403 313 L 385 304 Q 362 285 351 254 L 347 238 L 344 211 L 343 210 L 343 202 L 342 201 L 342 191 L 341 190 L 341 150 Q 339 148 340 144 L 337 135 L 328 120 Q 320 110 309 104 Q 301 102 290 103 Z"/><path fill="rgb(254,255,255)" stroke="rgb(254,255,255)" stroke-width="1" opacity="0.4470588235294118" d="M 289.5 103 Q 301 101.5 308.5 104 Q 320.4 109.6 328 119.5 L 337 134.5 L 340 143.5 Q 338.8 148.3 341 149.5 L 341 189.5 L 342 190.5 L 342 200.5 L 343 201.5 L 343 209.5 L 344 210.5 L 347 237.5 L 351 253.5 Q 361.8 284.7 384.5 304 L 402.5 313 L 431.5 289 L 457.5 274 L 475.5 268 L 500.5 262 Q 506 263.5 507.5 261 L 533.5 261 L 556.5 265 L 573.5 272 Q 595.5 284 611 302.5 Q 631.9 326.6 642 361.5 L 645 374.5 L 646 388.5 L 647 389.5 L 647 399.5 L 648 400.5 L 648 436.5 L 647 437.5 L 647 448.5 L 646 449.5 L 646 458.5 L 645 459.5 L 644 470.5 L 637 501.5 L 620 556.5 L 597 617.5 L 598.5 618 Q 636 594.5 665 562.5 L 686 534.5 L 694 518.5 L 703 493.5 L 707 477.5 L 711 455.5 L 712 440.5 L 713 439.5 L 713 430.5 L 715 419.5 L 715 409.5 L 717 398.5 L 717 388.5 L 718 387.5 L 718 376.5 L 720 366.5 L 720 353.5 L 721 352.5 L 722 336.5 L 723 335.5 L 723 329.5 L 728 301.5 L 733 284.5 Q 748.7 238.7 781.5 210 Q 794.2 197.7 812.5 191 L 824.5 188 L 844.5 188 Q 869.3 194.3 883 211.5 Q 898.3 234.7 905 266.5 L 905 271.5 L 907 278.5 L 907 286.5 L 908 287.5 L 908 296.5 L 909 297.5 L 910 351.5 L 909 352.5 L 909 371.5 L 908 372.5 L 907 398.5 L 906 399.5 L 905 415.5 L 904 416.5 L 904 423.5 L 903 424.5 L 903 431.5 L 902 432.5 L 900 450.5 L 891 490.5 L 879 527.5 Q 868.9 553.9 854 575.5 Q 834.7 602.2 810.5 624 Q 770.5 658.5 715.5 678 L 681.5 688 L 647.5 696 L 621.5 699 L 620.5 700 L 613.5 700 L 605.5 702 L 580.5 702 L 570 699 L 562 725.5 L 554 761.5 L 553 774.5 L 552 775.5 L 552 786.5 L 551 787.5 L 550 817.5 L 551 818.5 L 551 835.5 L 552 836.5 L 553 857.5 L 554 858.5 L 554 865.5 L 556 877 L 563.5 875 L 579.5 866 L 601 845.5 L 607 837.5 L 616 819.5 L 632 760.5 Q 640.9 738.9 657.5 725 Q 667.2 716.2 681.5 712 Q 689.8 709.3 702.5 711 Q 721 715.5 730 729.5 Q 741.9 743.1 746 764.5 Q 744.8 769.3 747 770.5 L 747 823.5 L 746 824.5 L 745 840.5 L 742 854.5 L 731 880.5 Q 717.3 905.3 696.5 923 Q 680.9 936.9 662.5 948 L 643.5 957 L 628.5 962 L 604.5 967 L 569.5 967 L 567.5 966 L 568 967.5 L 568 990.5 L 567 991.5 L 567 1000.5 L 566 1001.5 L 566 1008.5 L 563 1024.5 Q 555.3 1050.3 536.5 1065 Q 524.3 1074.8 506.5 1079 L 496.5 1081 L 485.5 1081 L 484.5 1082 L 458.5 1082 L 457.5 1081 L 444.5 1081 L 443.5 1080 L 429.5 1079 L 398.5 1072 Q 379.6 1066.4 363.5 1058 L 348 1045.5 L 324 1007.5 L 315 982.5 L 300 923.5 L 298.5 922 L 256.5 918 L 240.5 915 L 224.5 910 Q 191.1 896.4 170 870.5 Q 143.2 840.3 129 797.5 L 122 766.5 L 122 757.5 L 121 756.5 L 121 721.5 L 122 720.5 L 124 693.5 L 129 671.5 Q 137.7 650.2 153.5 636 L 164.5 629 L 180.5 629 Q 195.6 635.9 205 648.5 Q 213.2 657.3 217 670.5 L 220 684.5 L 220 692.5 L 221 693.5 L 222 709.5 L 223 710.5 L 225 728.5 L 231 750.5 Q 237.6 766.9 249.5 778 Q 257.6 784.2 271 784 L 271 771.5 L 270 770.5 L 270 714.5 L 271 713.5 L 272 670.5 L 273 669.5 L 273 658.5 L 274 657.5 L 274 647.5 L 275 646.5 L 275 638.5 L 277 628.5 L 277 619.5 L 283 585.5 L 283 579.5 L 290 544.5 L 303 493.5 L 313 460.5 L 322 435.5 L 335 408.5 L 308.5 395 Q 289.8 381.7 275 364.5 L 257 334.5 L 250 316.5 L 244 295.5 L 240 272.5 L 240 262.5 L 239 261.5 L 239 218.5 L 240 217.5 L 240 208.5 L 241 207.5 L 244 180.5 L 252 149.5 Q 260.9 124.4 279.5 109 L 289.5 103 Z M 291 104 L 281 110 Q 262 125 253 151 L 245 182 L 242 209 L 241 210 L 241 219 L 240 220 L 240 261 L 241 262 L 241 272 L 248 307 L 258 334 L 276 364 Q 291 381 310 394 Q 321 403 337 408 L 323 437 L 314 462 L 304 495 L 291 546 L 284 581 L 284 587 L 278 621 L 278 630 L 276 640 L 276 648 L 275 649 L 275 659 L 274 660 L 274 671 L 273 672 L 272 715 L 271 716 L 271 770 L 272 771 L 272 786 L 260 784 L 249 779 Q 237 768 230 752 L 224 730 L 222 712 L 221 711 L 220 695 L 219 694 L 219 686 L 216 672 Q 212 658 204 650 Q 195 637 180 630 L 166 630 L 155 637 Q 139 651 130 673 L 125 695 L 123 722 L 122 723 L 122 756 L 123 757 L 123 766 L 128 790 L 133 806 Q 147 842 171 870 Q 192 895 226 909 L 242 914 L 258 917 L 300 921 L 301 923 L 316 981 L 325 1006 Q 336 1027 350 1046 L 364 1056 L 376 1062 L 401 1071 L 432 1078 L 446 1079 L 447 1080 L 460 1080 L 461 1081 L 483 1081 L 484 1080 L 495 1080 L 505 1078 Q 523 1073 537 1063 Q 552 1050 560 1029 L 564 1014 L 566 990 L 567 989 L 567 970 L 566 965 L 572 966 L 603 966 Q 604 964 610 965 L 642 956 L 663 946 Q 681 935 697 921 Q 721 900 735 869 L 743 845 L 745 823 L 746 822 L 746 773 Q 744 771 745 767 Q 740 744 728 730 L 713 716 L 701 712 L 688 712 L 678 715 Q 666 719 658 727 L 643 744 L 633 763 L 629 775 L 621 810 L 614 829 Q 606 846 592 858 Q 582 867 570 874 L 560 878 L 555 878 L 552 860 L 551 839 L 550 838 L 550 821 L 549 820 L 550 786 L 551 785 L 551 774 L 552 773 L 553 760 L 561 724 L 570 697 L 583 701 L 604 701 L 605 700 L 634 697 L 652 693 L 657 693 L 715 677 Q 769 657 810 623 Q 834 601 853 575 Q 868 553 878 527 L 890 490 L 899 450 L 901 432 L 902 431 L 902 424 L 903 423 L 903 416 L 904 415 L 905 399 L 906 398 L 907 372 L 908 371 L 908 352 L 909 351 L 908 299 L 907 298 L 907 289 L 906 288 L 906 280 L 904 273 L 904 268 Q 897 236 882 213 Q 869 194 843 189 L 826 189 L 814 192 Q 795 199 783 211 Q 750 240 734 286 L 729 303 L 724 331 L 724 337 L 723 338 L 722 354 L 721 355 L 721 368 L 719 378 L 719 389 L 718 390 L 718 400 L 716 411 L 716 421 L 714 432 L 714 441 L 713 442 L 712 457 L 708 479 L 704 495 L 695 520 L 687 536 L 666 564 Q 636 597 597 620 L 595 621 L 619 556 L 636 501 L 643 470 L 644 459 L 645 458 L 645 449 L 646 448 L 646 437 L 647 436 L 647 402 L 646 401 L 646 391 L 645 390 L 644 376 L 641 363 Q 631 328 610 304 Q 594 285 573 273 L 556 266 L 533 262 L 509 262 Q 507 265 502 263 L 477 269 L 459 275 L 433 290 L 404 314 L 396 312 L 384 305 Q 361 286 350 255 L 346 239 L 343 212 L 342 211 L 342 203 L 341 202 L 341 192 L 340 191 L 340 151 Q 338 149 339 145 L 336 136 L 327 121 Q 319 111 308 105 Q 301 103 291 104 Z"/><path fill="rgb(255,255,255)" stroke="rgb(255,255,255)" stroke-width="1" opacity="1" d="M 290.5 104 Q 300.8 102.7 307.5 105 Q 319.4 110.6 327 120.5 L 336 135.5 L 339 144.5 Q 337.8 149.2 340 150.5 L 340 190.5 L 341 191.5 L 341 201.5 L 342 202.5 L 342 210.5 L 343 211.5 L 346 238.5 L 350 254.5 Q 360.8 285.7 383.5 305 L 395.5 312 L 403.5 314 L 432.5 290 L 458.5 275 L 476.5 269 L 501.5 263 Q 507 264.5 508.5 262 L 532.5 262 L 555.5 266 L 572.5 273 Q 594.5 285 610 303.5 Q 630.9 327.6 641 362.5 L 644 375.5 L 645 389.5 L 646 390.5 L 646 400.5 L 647 401.5 L 647 435.5 L 646 436.5 L 646 447.5 L 645 448.5 L 645 457.5 L 644 458.5 L 643 469.5 L 636 500.5 L 619 555.5 L 595 620.5 L 596.5 620 Q 636.3 596.8 666 563.5 L 687 535.5 L 695 519.5 L 704 494.5 L 708 478.5 L 712 456.5 L 713 441.5 L 714 440.5 L 714 431.5 L 716 420.5 L 716 410.5 L 718 399.5 L 718 389.5 L 719 388.5 L 719 377.5 L 721 367.5 L 721 354.5 L 722 353.5 L 723 337.5 L 724 336.5 L 724 330.5 L 729 302.5 L 734 285.5 Q 749.7 239.7 782.5 211 Q 795.2 198.7 813.5 192 L 825.5 189 L 842.5 189 Q 868.5 194.5 882 212.5 Q 897.3 235.7 904 267.5 L 904 272.5 L 906 279.5 L 906 287.5 L 907 288.5 L 907 297.5 L 908 298.5 L 909 350.5 L 908 351.5 L 908 370.5 L 907 371.5 L 906 397.5 L 905 398.5 L 904 414.5 L 903 415.5 L 903 422.5 L 902 423.5 L 902 430.5 L 901 431.5 L 899 449.5 L 890 489.5 L 878 526.5 Q 867.9 552.9 853 574.5 Q 833.7 601.2 809.5 623 Q 769.5 657.5 714.5 677 L 656.5 693 L 651.5 693 L 633.5 697 L 604.5 700 L 603.5 701 L 582.5 701 L 569.5 697 L 561 723.5 L 553 759.5 L 552 772.5 L 551 773.5 L 551 784.5 L 550 785.5 L 549 819.5 L 550 820.5 L 550 837.5 L 551 838.5 L 552 859.5 L 555 878 L 559.5 878 L 569.5 874 Q 582.3 867.3 592 857.5 Q 605.6 845.6 614 828.5 L 621 809.5 L 629 774.5 L 633 762.5 L 643 743.5 L 657.5 727 Q 666 719.5 677.5 715 L 687.5 712 L 700.5 712 L 712.5 716 L 728 729.5 Q 740.5 744 745 766.5 Q 743.8 771.3 746 772.5 L 746 821.5 L 745 822.5 L 743 844.5 L 735 868.5 Q 720.7 899.7 696.5 921 Q 680.9 934.9 662.5 946 L 641.5 956 L 609.5 965 Q 604 963.5 602.5 966 L 571.5 966 L 566 965 L 567 969.5 L 567 988.5 L 566 989.5 L 564 1013.5 L 560 1028.5 Q 552.2 1049.7 536.5 1063 Q 523.3 1073.3 504.5 1078 L 494.5 1080 L 483.5 1080 L 482.5 1081 L 460.5 1081 L 459.5 1080 L 446.5 1080 L 445.5 1079 L 431.5 1078 L 400.5 1071 L 375.5 1062 L 363.5 1056 L 350 1045.5 Q 335.9 1027.1 325 1005.5 L 316 980.5 L 301 922.5 L 299.5 921 L 257.5 917 L 241.5 914 L 225.5 909 Q 192.1 895.4 171 869.5 Q 147.1 842.4 133 805.5 L 128 789.5 L 123 765.5 L 123 756.5 L 122 755.5 L 122 722.5 L 123 721.5 L 125 694.5 L 130 672.5 Q 138.7 651.2 154.5 637 L 165.5 630 L 179.5 630 Q 194.6 636.9 204 649.5 Q 212.2 658.3 216 671.5 L 219 685.5 L 219 693.5 L 220 694.5 L 221 710.5 L 222 711.5 L 224 729.5 L 230 751.5 Q 236.6 767.9 248.5 779 L 259.5 784 L 272 786 L 272 770.5 L 271 769.5 L 271 715.5 L 272 714.5 L 273 671.5 L 274 670.5 L 274 659.5 L 275 658.5 L 275 648.5 L 276 647.5 L 276 639.5 L 278 629.5 L 278 620.5 L 284 586.5 L 284 580.5 L 291 545.5 L 304 494.5 L 314 461.5 L 323 436.5 L 337 407.5 Q 321.4 402.6 309.5 394 Q 290.8 380.7 276 363.5 L 258 333.5 L 248 306.5 L 241 271.5 L 241 261.5 L 240 260.5 L 240 219.5 L 241 218.5 L 241 209.5 L 242 208.5 L 245 181.5 L 253 150.5 Q 261.9 125.4 280.5 110 L 290.5 104 Z"/></svg>
