<svg xmlns="http://www.w3.org/2000/svg" version="1.1" xmlns:xlink="http://www.w3.org/1999/xlink" xmlns:svgjs="http://svgjs.dev/svgjs" viewBox="0 0 600 600"><path d="M630.050563971789 593.2622647423884C533.3427470530979 680.5050625939509 152.27280791659285 604.7848884403049 63.383923690111715 594.4968228478572C-25.50496053636941 584.2087572554092 85.40038585721581 551.9042426883518 96.71725861290224 531.5338711877009C108.03413136858867 511.16349968705174 116.88186915774274 485.0317959923898 131.28516022423037 472.2745938439523C145.68845129071798 459.5173916955148 165.6472932503534 465.48448357377 183.13700501182802 454.9906582970773C200.62671677330263 444.4968330203846 220.37980794965355 430.09353813919967 236.22343079307802 409.31164218379604C252.06705363650246 388.5297462283924 267.910676479927 353.7560747602934 278.1987420723749 330.2992825646554C288.4868076648228 306.8424903690174 284.37157583295436 285.0317909061268 297.9518243477655 268.5708890099679C311.53207286257674 252.1099871138091 340.54443248171737 242.64498060339236 359.6802331612421 231.5338711877023C378.8160338407668 220.4227617720122 392.19049724001815 208.90011772904344 412.76662842491396 201.9042325158273C433.3427596098098 194.90834730261113 465.6473046944452 200.66967059566127 483.1370202706171 189.5585599084054C500.62673584678896 178.44744922114955 502.27282857953634 151.90423633052455 517.7049218819452 135.23756839229213C533.137015184354 118.57090045405971 559.8859623279087 97.37748258703498 575.7295800850702 89.55855227901088C591.5731978422317 81.73962197098679 601.4497542387161 91.41040596756882 612.766628424914 88.3239865441476C624.0835026111118 85.23756712072638 640.7501692777786 -13.116343961223492 643.6308252022577 71.04003573848354C646.5114811267368 155.19641543819057 726.75838089048 506.0194668908279 630.050563971789 593.2622647423884C533.3427470530979 680.5050625939509 152.27280791659285 604.7848884403049 63.383923690111715 594.4968228478572 " fill="hsl(340, 45%, 50%)" transform="matrix(1.096994390625,0,0,1.096994390625,-30.186438434301806,-35.60747857289272)"></path></svg>