<svg xmlns="http://www.w3.org/2000/svg" viewBox="0 0 150 150">
<!-- SVG created with Arrow, by QuiverAI (https://quiver.ai) -->
  <style type="text/css">.cls-0 {fill:none;stroke:#C2B59B;stroke-width:1.1946;stroke-linecap:round;stroke-linejoin:round;stroke-miterlimit:10;}
.cls-1 {fill:none;stroke:#C2B59B;stroke-width:0.3584;stroke-linecap:round;stroke-linejoin:round;stroke-miterlimit:10;}
.cls-2 {fill:none;stroke:#C2B59B;stroke-width:0.2389;stroke-linecap:round;stroke-linejoin:round;stroke-miterlimit:10;}
.cls-3 {fill:none;stroke:#C2B59B;stroke-width:0.3969;stroke-linecap:round;stroke-linejoin:round;stroke-miterlimit:10;}
.cls-4 {fill:none;stroke:#C2B59B;stroke-width:0.2977;stroke-linecap:round;stroke-linejoin:round;stroke-miterlimit:10;}</style>
  <path class="cls-0" d="m80.1 63.8c-2.5-0.9-10.1-9.5-13.7-17.9-4.1-9.6-3.4-17.2 1.3-24.9 8.4-13.5 21.8-7.3 26.2 3.6 5.8 14.1-1.4 31.7-7.9 38.3"/>
  <path class="cls-0" d="m80.1 63.6c-4.5 1.8-9.8 6.7-12.1 15.1"/>
  <path class="cls-0" d="m86.1 63c2.3 0 7.1 2.4 9.2 8.7"/>
  <path class="cls-0" d="m43.2 78.5c1.8-2 5.1-4 8-4.5 1.2 0.3 3.5 0.5 4.9-0.6 9.5 1.2 15.5 7.6 20.2 15.8"/>
  <path class="cls-0" d="m88.7 75.9c-2.8 1.7-17.4 13.6-17.4 35.5 0 5.7 2 14.9 4.1 19.8h15.7c9.5-5.7 25.4-19.8 25.4-40.4 0-3.7-0.7-7.7-1.9-11.3-2.1-0.2-8-1.9-8.2-7.6 0-9 1.7-23.8 8.5-32 7.4-8.6 21.3-11.9 26.5-4.4 6.2 7.6 5.3 22.9-4.2 32.6-5.5 5.9-12.4 10.8-22.8 11.2"/>
  <path class="cls-0" d="m42.9 79.1c-1.1-7.1-3.8-18.3-8.2-25.1-4.5-6.2-9.6-10.6-17.1-11-7.8 0-12.9 7.2-12.9 16.8 0 6.9 4.9 18.7 16.9 23.2 5.9 2.7 12.1 3.4 17 2.9"/>
  <path class="cls-0" d="m40.1 43.4c1-3.7 3.5-8.5 8.7-8.4 5.5 0 10.3 5.1 11.8 11.9 2 8.2-2 19.8-4.5 26.3"/>
  <path class="cls-0" d="m43.6 88.2"/>
  <path class="cls-0" d="m88.4 75.9c2.6-1.9 9.3-5.8 18-4.4"/>
  <path class="cls-0" d="m38.4 86.1c-2.1 17.4 7.7 31.3 25.3 44.9l11.7 0.2"/>
  <path class="cls-0" d="m39.8 50.2c-0.6-5.3 0.3-8.6 3.4-12.3"/>
  <path class="cls-1" d="m44 78.9c1.4 1 2.7 3.5 0.7 6.2-1.1 1.3-2.9 2.5-6.1 2.5"/>
  <path class="cls-1" d="m105.3 73.4c-1.1 2.7 1.3 7 5.9 8 1.3 0.2 2.6 0.4 3.7 0"/>
  <path class="cls-2" d="m41.6 44.3c-1.1 8.6 3.8 16.5 9.6 29.3"/>
  <path class="cls-2" d="m43.6 83.6c-2.7-4.7-5-13.1-5.4-13.1"/>
  <path class="cls-3" d="m80.1 65.1c2 0.9 5.8 0.3 6.6-0.4"/>
  <path class="cls-2" d="m51.6 75.9c1.8 1 4.5 0 6-1.5"/>
  <path class="cls-4" d="m65.6 36.3c1 8.2 6.5 16.8 13.9 26.6"/>
  <path class="cls-4" d="m89.2 56.6c3.3-6 5.4-14.4 5-21.6"/>
  <path class="cls-4" d="m84.2 63.6c5.2-8.3 9.2-22 7.5-29.2"/>
  <path class="cls-2" d="m70.9 42.6"/>
  <path class="cls-4" d="m67.7 26.4c-0.5 2.9-0.8 6-0.2 8.6"/>
  <path class="cls-4" d="m69 43.1c2.3 5.6 7.9 14.2 10.9 19.2"/>
  <path class="cls-4" d="m84.4 63.4c2.5-5.3 8.5-17.3 8.5-27.1"/>
  <path class="cls-4" d="m82.6 63.6c-2.2-4.2-5-9.9-7.2-14"/>
  <path class="cls-4" d="m80.9 63.4c-2.7-3.6-7.8-12.6-8.4-16.5"/>
  <path class="cls-4" d="m82.1 63.6c-1.7-4.2-3.5-9.3-3.7-9.7"/>
  <path class="cls-4" d="m82.9 63.6c0.3-2.3 1.7-9.3 1.9-12.6"/>
  <path class="cls-4" d="m83.4 63.6c0.2-2.3 1.4-9.3 1.4-12.6"/>
  <path class="cls-4" d="m84 63.4c0.4-1.8 4.4-10 5-11.7"/>
  <path class="cls-4" d="m85 62.9c1.3-2.1 4.8-9 5.4-11.2"/>
  <path class="cls-4" d="m82.5 63.6c0.1-1.7-1.2-6-1.4-6"/>
  <path class="cls-4" d="m82.6 63.4c-0.1-2.1-1-6.1-1-6.1"/>
  <path class="cls-4" d="m84 63.4c0.6-2.6 3.1-9.7 3.1-11.3"/>
  <path class="cls-4" d="m86.3 54.7 1.3-2.6"/>
  <path class="cls-2" d="m22.7 74.3c-1.6-0.9-4.7-4.4-5.4-5.4"/>
  <path class="cls-2" d="m14.5 77.4-4.9 2.4"/>
  <path class="cls-2" d="m5.6 68.3-3-0.4"/>
  <path class="cls-2" d="m4.4 59.4-2.8-1.2"/>
  <path class="cls-2" d="m6 51.7-1.4-1.9"/>
  <path class="cls-2" d="m9.2 45.7-1.4-2.9"/>
  <path class="cls-2" d="m12.6 43.6-1.1-2.6"/>
  <path class="cls-2" d="m16.1 42.6 0.1-2.5"/>
  <path class="cls-2" d="m21.9 43-0.2-2.7"/>
  <path class="cls-2" d="m29 46.5 1.7-3.1"/>
  <path class="cls-2" d="m35.4 54 1.7-2.8"/>
  <path class="cls-2" d="m39.2 62.3 1.7-1.7"/>
  <path class="cls-2" d="m25.2 85.5-0.9 1.9"/>
  <path class="cls-2" d="m24.8 82.4c-6.2-2.5-16.6-9.8-17.5-17.3"/>
  <path class="cls-2" d="m27.3 83c-7.2-3.2-17.2-10.2-20-20.7"/>
  <path class="cls-2" d="m30.7 84.6c-9-2-20.6-8.7-24.4-21.2"/>
  <path class="cls-2" d="m41.8 84.4c-4.7-2-11.3-4.5-19.1-10.1"/>
  <path class="cls-2" d="m40.9 85.1c-5.8-0.9-11.9-3.2-14.2-5"/>
  <path class="cls-2" d="m40.1 85.5c-4-0.4-9.4-2.1-11.7-3.4"/>
  <path class="cls-2" d="m32.4 83.9c-5.5-1.8-13.4-6.5-19-12.4"/>
  <path class="cls-2" d="m20.2 76.5c-1.6-1.2-4.1-3.1-5.1-4.5"/>
  <path class="cls-2" d="m24.8 78.7-1.7-0.9"/>
  <path class="cls-2" d="m32.6 82.1-1.9-0.5"/>
  <path class="cls-2" d="m7.3 53.4-1-1.3"/>
  <path class="cls-2" d="m7.3 50.2"/>
  <path class="cls-2" d="m8.6 50c-3 4.7-4.6 14.7 4.2 23.4"/>
  <path class="cls-2" d="m35.4 64.5c-0.7-2.4-3-6.4-4.4-7.4"/>
  <path class="cls-2" d="m43.6 86.4c0 4.2 1.1 9.1 2.3 13.2"/>
  <path class="cls-2" d="m46.1 104.6c-2.5-5-4.5-12.5-3.9-19.5"/>
  <path class="cls-2" d="m41.8 94.4c-0.7-2.7-0.9-6.8-0.7-8.9"/>
  <path class="cls-2" d="m42.2 94.7c-0.6-2.1-0.8-6.1-0.6-8.8"/>
  <path class="cls-2" d="m44 79.1"/>
  <path class="cls-2" d="m42.2 78.2-1.6-4.4"/>
  <path class="cls-2" d="m42.9 81-3-3.2"/>
  <path class="cls-2" d="m42.2 83-3.8-2.9"/>
  <path class="cls-2" d="m40.9 86.4c-2.5 1.8-2.3 1.8-2.3 1.8"/>
  <path class="cls-2" d="m44.7 84.2c0 1.3-1.8 2.9-2.9 3.4"/>
  <path class="cls-2" d="m45.6 83.6-0.2 0.3"/>
  <path class="cls-2" d="m42.9 105.9h-1.3"/>
  <path class="cls-2" d="m41.6 108.2-3 0.2"/>
  <path class="cls-2" d="m38.2 96.4-3.3-0.9"/>
  <path class="cls-2" d="m55.1 125.3-1.7 1.4"/>
  <path class="cls-2" d="m48.2 118-3 0.7"/>
  <path class="cls-2" d="m112.1 116.3-3.7-0.8"/>
  <path class="cls-2" d="m104.9 123.8-3.2-0.9"/>
  <path class="cls-2" d="m104.9 123.8-2.3-0.6"/>
  <path class="cls-2" d="m118.9 85.5-2.4 1.9"/>
  <path class="cls-2" d="m126.1 79.8-1.3-2"/>
  <path class="cls-2" d="m134.9 75.9-2-2.1"/>
  <path class="cls-2" d="m144.4 64.5-3.3-0.5"/>
  <path class="cls-2" d="m145.7 58.1h-1.8"/>
  <path class="cls-2" d="m147.4 51.5-2.3 0.6"/>
  <path class="cls-2" d="m148.4 42.6-3.3 1.4"/>
  <path class="cls-2" d="m146.1 37.6-2.2 1.8"/>
  <path class="cls-2" d="m143.4 33.7-1.3 2.6"/>
  <path class="cls-2" d="m138.5 29.5-2.3 4.2"/>
  <path class="cls-2" d="m132.4 29-0.7 5.1"/>
  <path class="cls-2" d="m122.6 30.1 1 3.6"/>
  <path class="cls-2" d="m116.1 35.2 1.7 2.2"/>
  <path class="cls-2" d="m110.4 41.2 1.7 3.1"/>
  <path class="cls-2" d="m105.6 53.4 2.2 2.3"/>
  <path class="cls-2" d="m99.1 34.7-3 1.6"/>
  <path class="cls-2" d="m96.3 48.6-2.9 0.8"/>
  <path class="cls-2" d="m95.3 21.5-3.1 3.5"/>
  <path class="cls-2" d="m89.6 15.4-0.4 2.5"/>
  <path class="cls-2" d="m86.1 12.9-1 2.2"/>
  <path class="cls-2" d="m80.3 10.5-1.7 3.8"/>
  <path class="cls-2" d="m71.2 12.1 1.3 2.2"/>
  <path class="cls-2" d="m66.9 15.4 1.5 2.7"/>
  <path class="cls-2" d="m62 25.5 3.6 3.5"/>
  <path class="cls-2" d="m63 42.8 2.6 0.3"/>
  <path class="cls-2" d="m60.1 42.6-0.4 0.4"/>
  <path class="cls-2" d="m56.7 35-1.3 1.9"/>
  <path class="cls-2" d="m48.2 32.4 0.4 2.3"/>
  <path class="cls-2" d="m41.6 35.2 1.3 2.2"/>
  <path class="cls-2" d="m38.6 41.2 1.5 1.4"/>
  <path class="cls-2" d="m37.6 47.7 1.8 0.5"/>
  <path class="cls-2" d="m40.1 57.6 2.1 0.3"/>
  <path class="cls-2" d="m44 66 1.9-0.2"/>
  <path class="cls-2" d="m63.4 52.5-1.8 0.9"/>
  <path class="cls-2" d="m62.7 58.4-1.7 0.8"/>
  <path class="cls-2" d="m61.2 62.9h-0.6"/>
  <path class="cls-2" d="m62.6 72.4-0.4 2.5"/>
  <path class="cls-2" d="m73.1 64.7 1.3 3.9"/>
  <path class="cls-2" d="m92.9 63.2-0.8 2.2"/>
  <path class="cls-2" d="m40.1 89.2c-0.7 13.4 10.5 30.3 24.3 41.2"/>
  <path class="cls-2" d="m47.1 107.1c3.5 6.7 11.8 16.9 19.8 23.7"/>
  <path class="cls-2" d="m59.1 125.3 5.6 5.1"/>
  <path class="cls-2" d="m58.9 124.6c2.7 2.5 6.1 4.7 8.3 6.4"/>
  <path class="cls-2" d="m56.1 118.7c3.3 4.2 8.6 8.9 12.8 12.3"/>
  <path class="cls-2" d="m50.2 109.9c3.2 5.2 11.9 14.9 19.5 21.1"/>
  <path class="cls-2" d="m49.4 104.6 1.2 2.8-4.1-0.4"/>
  <path class="cls-2" d="m50.1 103.2c1.5 3.4 7.3 13.1 12.1 17.2l-3.8-0.9"/>
  <path class="cls-2" d="m54.3 108.4c2.1 3.7 6.1 9.8 9.1 12.4l5.5 5.9"/>
  <path class="cls-2" d="m62.9 112.4c3.5 5.6 8 11 11.2 15.2"/>
  <path class="cls-2" d="m66.3 114 5.8 10"/>
  <path class="cls-2" d="m68 117.4 1.4 3.4"/>
  <path class="cls-2" d="m69.4 119.5 4.7 9.2"/>
  <path class="cls-2" d="m70.5 121.7 3.2 8.7"/>
  <path class="cls-2" d="m69.2 126.3 2.4 3"/>
  <path class="cls-2" d="m65.6 119.1 6.9 8"/>
  <path class="cls-2" d="m59.4 113.8 9.5 12.5"/>
  <path class="cls-2" d="m72.1 126.7 1.6 2.6"/>
  <path class="cls-2" d="m72.1 92.6c-4.4 7-4.1 18.8-0.8 28.8"/>
  <path class="cls-2" d="m73.1 91.7c-3.7 7.5-3.7 21.7 0 30"/>
  <path class="cls-2" d="m74.1 88.2 1 1.9"/>
  <path class="cls-2" d="m71.2 88.9 2.9 4.7"/>
  <path class="cls-2" d="m72.5 89.2 1.9 2.9"/>
  <path class="cls-2" d="m68.6 96.4 3 6.2"/>
  <path class="cls-2" d="m69.7 104.6 0.4 4.8"/>
  <path class="cls-2" d="m70.1 107.8 0.8 1.6"/>
  <path class="cls-4" d="m75.9 99.9c-1.8 6-2.5 20.9 0 30.9"/>
  <path class="cls-4" d="m75.4 109.9c0.5-2.5 0.9-5.3 1.5-7.3"/>
  <path class="cls-4" d="m75.4 112.9c-0.3 4.2-0.3 13.4 0.5 17.9"/>
  <path class="cls-4" d="m76.1 115.1c-0.2 4.8-0.2 11.2 0.5 15.7"/>
  <path class="cls-4" d="m76.9 119.5c-0.3 2.2-0.3 9.2 0 11.3"/>
  <path class="cls-4" d="m77.6 119.5c-0.7 2.6-0.7 9.2-0.7 11.3"/>
  <path class="cls-4" d="m78.4 111.4c-1.5 4.9-1.5 14.9-1.5 19.4"/>
  <path class="cls-4" d="m78.6 111.1c-0.7 4.4-1 14.8-1.7 19.7"/>
  <path class="cls-4" d="m79.9 115.9-3 14.9"/>
  <path class="cls-4" d="m82.1 118c-1.7 3.4-2.2 8.7-4.5 12.8"/>
  <path class="cls-4" d="m83.2 118-4.6 9.6"/>
  <path class="cls-4" d="m88.9 115.5-11 15.3"/>
  <path class="cls-4" d="m90.1 116.3-11 14.5"/>
  <path class="cls-4" d="m90.1 118.7-9 12.1"/>
  <path class="cls-4" d="m91.4 119.1-8.8 11.7"/>
  <path class="cls-4" d="m94.9 119.1c-2 2.6-7.3 8-10.5 11.7"/>
  <path class="cls-4" d="m94.9 118.7-9.3 12.1"/>
  <path class="cls-4" d="m96.4 118.2c-3 3.9-8 8.9-10.8 12.2"/>
  <path class="cls-4" d="m86.1 122.4-0.5 0.8"/>
  <path class="cls-4" d="m81.1 126.7-1.2 1.7"/>
  <path class="cls-4" d="m110 65.4"/>
  <path class="cls-4" d="m108.4 74.9 2.5-5.4"/>
  <path class="cls-4" d="m108.4 75.3 2.5-6.4"/>
  <path class="cls-4" d="m109.4 65.4c-1 4.5-2.3 12.2-1 10.9l2.5-1.9"/>
  <path class="cls-4" d="m108.4 77.4 6-4.2"/>
  <path class="cls-4" d="m108.9 77.8 6-4.6"/>
  <path class="cls-4" d="m109.9 78.2 5.5-5"/>
  <path class="cls-4" d="m110.9 78.7 6.5-3.4"/>
  <path class="cls-4" d="m111.7 78.7c2.4-0.9 5.2-2.8 6.1-3.4"/>
  <path class="cls-4" d="m112.9 78.9c4.5-1.3 11.5-6.5 13.5-8.2"/>
  <path class="cls-4" d="m114.4 79.1c3-0.9 11.5-6.3 14-8.4"/>
  <path class="cls-4" d="m115.9 79.1c5-1.7 12.5-6.7 18.5-12"/>
  <path class="cls-4" d="m117.1 78.7c6.1-2.2 16.1-7.6 19.8-12.9"/>
  <path class="cls-4" d="m121.4 77.6c11-3.6 23-16.3 21.8-34"/>
  <path class="cls-4" d="m125.9 74.9c5-2.9 10-7.3 12-9.8"/>
  <path class="cls-4" d="m117.4 74.4 8-6.5"/>
  <path class="cls-4" d="m115.4 73.2 4.4-3.7"/>
  <path class="cls-2" d="m108.1 111.4h2.3"/>
  <path class="cls-2" d="m114.1 101 4.4-0.7"/>
  <path class="cls-4" d="m109.4 104.6c1.8-4 1.5-4.3 1.5-5.6"/>
  <path class="cls-4" d="m104.6 111.1 2.5-4.5"/>
  <path class="cls-4" d="m96.7 118 5-6.6"/>
  <path class="cls-2" d="m109.9 103.6c3.9-8.1 4.2-16.9 1.5-24.1"/>
  <path class="cls-2" d="m110.4 103c3-8.1 3.4-16.6 0-23.7"/>
  <path class="cls-2" d="m110.4 86.1c0-1.5 0-4.7-2-7.4"/>
  <path class="cls-2" d="m110.9 79.5c1.6 2.6 0.8 7.2 0.8 6.6"/>
  <path class="cls-2" d="m111.7 80.1c0.8 2.3 0.4 8.5 0 8.5"/>
  <path class="cls-2" d="m112.5 81c0.9 2.9 1.3 15.4-2.1 22"/>
  <path class="cls-2" d="m113.4 81c2 10.1 1.5 23.2-13.8 38.1l-8.5 11.3"/>
  <path class="cls-2" d="m113.4 80.4c3.1 15.1-1.7 27.8-18.5 43.4l-5.5 6.6"/>
  <path class="cls-2" d="m114.1 81c2 10.7 0.8 22.6-15.7 39.8l-8.3 10"/>
  <path class="cls-2" d="m48.2 64-1.7-0.8 5.4 10.4"/>
  <path class="cls-2" d="m46.5 62.9 5.4 10.7"/>
  <path class="cls-2" d="m48.6 60.7 3.8 12.9"/>
  <path class="cls-2" d="m49.1 60.7 3.3 12.9"/>
  <path class="cls-2" d="m50.4 63.6 2.5 10"/>
  <path class="cls-2" d="m51.6 64.7 1.8 8.9"/>
  <path class="cls-2" d="m52.9 65.4 0.5 8.2"/>
  <path class="cls-2" d="m54.1 67.1-0.7 6.5"/>
  <path class="cls-2" d="m56.4 64-1.7 9.6"/>
  <path class="cls-2" d="m58.4 59.4c-0.3 4.6-2 10.7-3.3 14.2"/>
  <path class="cls-2" d="m58.9 55.7c-0.3 5.6-2.2 13.8-3.8 17.9"/>
  <path class="cls-2" d="m44.4 53.9 2.1 5.9"/>
  <path class="cls-2" d="m44.4 51.5c1 4.2 3.5 10.8 4.2 11.7"/>
  <path class="cls-2" d="m43.4 53.7c0.6 2.9 2.5 7.1 3.1 7.9"/>
  <path class="cls-2" d="m70.1 42.6c-0.7-1.4-2.4-5.2-2.4-6l2.4 1v-2.4"/>
  <path class="cls-2" d="m70.4 20.2-1 3.2-2.2-1.5"/>
  <path class="cls-1" d="m21.1 131.2 103.8 0.2"/>
  <path class="cls-1" d="m34.2 131.2 77.2-0.8"/>
  <path class="cls-1" d="m16.4 132.9 26.5-0.2"/>
  <path class="cls-1" d="m34.2 132.4 83.4-0.7"/>
  <path class="cls-1" d="m35.1 134.1 25.3-0.7"/>
  <path class="cls-1" d="m45.2 135.9h18.2"/>
  <path class="cls-1" d="m63.7 135.9 30.9-0.4"/>
  <path class="cls-1" d="m49.4 137.4h19.5"/>
  <path class="cls-1" d="m69.2 137.6 32.9-0.7"/>
  <path class="cls-1" d="m66.7 139.2 20-0.3"/>
  <path class="cls-1" d="m65 133.4 59.4 0.3"/>
  <path class="cls-1" d="m82.1 133.2 56.8-0.5"/>
  <path class="cls-1" d="m45.6 130.6h17.1"/>
  <path class="cls-1" d="m49.7 134.6 12.4-0.2"/>
  <path class="cls-1" d="m68.4 134.1 30.2 0.3"/>
  <path class="cls-1" d="m62.9 134.4 18 0.2"/>
  <path class="cls-1" d="m90.1 134.4 14-0.3"/>
  <path class="cls-1" d="m63.7 135.5 12.2-0.3"/>
  <path class="cls-1" d="m89.6 134.4 14.3-0.3"/>
  <path class="cls-1" d="m64.7 135.9 54.7-0.8"/>
  <path class="cls-1" d="m33 135.5 16.7-0.6"/>
  <path class="cls-1" d="m50.1 134.6 11.5-0.5"/>
  <path class="cls-1" d="m92.4 130.4h19"/>
  <path class="cls-1" d="m89 132.9 30.4-0.2"/>
  <path class="cls-1" d="m108.4 132.9 6.5 0.3"/>
  <path class="cls-4" d="m84.1 17.5 1.5 1.6"/>
  <path class="cls-4" d="m86.3 20.4 2.1 3.3"/>
  <path class="cls-4" d="m91.9 27.6c2.7 9 1 18.1-3 29"/>
  <path class="cls-4" d="m88.7 27 1.2 3.5 1.5-1.8"/>
  <path class="cls-4" d="m89.9 42.8c-0.5 2.9-1 4.9-1.5 6.3"/>
  <path class="cls-4" d="m87.6 47.4-0.9 3.8"/>
  <path class="cls-4" d="m65.2 31.3 0.2 3.1"/>
  <path class="cls-4" d="m88.4 64.7-0.4 2 1-1.3"/>
  <path class="cls-4" d="m91 67.1c0.9 2 1.4 5.3 1.4 5.7"/>
  <path class="cls-4" d="m91.4 69.9 0.5 2.9"/>
  <path class="cls-4" d="m92.9 69.5 0.5 2.9"/>
  <path class="cls-4" d="m91 69.9-0.4 3.7"/>
  <path class="cls-4" d="m90.6 70.5-0.2 3.1"/>
  <path class="cls-4" d="m89.4 70.7c0 1.3 0 4.2-0.4 4.2"/>
  <path class="cls-4" d="m88.9 76.9-1-1"/>
  <path class="cls-4" d="m85.6 74.4-2 6"/>
  <path class="cls-4" d="m83.6 74.7-0.7 4.8"/>
  <path class="cls-4" d="m81.6 76.5-0.5 1.7"/>
  <path class="cls-4" d="m80.6 79.5-1.2 5.1"/>
  <path class="cls-4" d="m79.1 80.4-2 6.7"/>
  <path class="cls-4" d="m76.9 84.2-0.8 3.4"/>
  <path class="cls-4" d="m75.9 83.4-0.8 3.3"/>
  <path class="cls-4" d="m75.9 83.9-0.3 2.8"/>
  <path class="cls-4" d="m74.9 80.4-0.3 2.6"/>
  <path class="cls-4" d="m73.6 81 0.5 4.1"/>
  <path class="cls-4" d="m73.4 81.4v3.2"/>
  <path class="cls-4" d="m73.4 78.4c-0.3 1.7-1 4.6-1 4.6"/>
  <path class="cls-4" d="m71.4 76.3c-0.5 1.9-0.8 4.7-0.5 5.6"/>
  <path class="cls-4" d="m70.1 76.5c-0.4 1.3-0.7 3.4-0.4 3.9"/>
  <path class="cls-4" d="m141.6 49.4c-0.5 6.7-4 12.9-5.5 16"/>
  <path class="cls-4" d="m137.9 60.1c-1.8 3.9-7.8 10-7.8 10"/>
  <path class="cls-4" d="m136.4 61.3-1.8 2.3"/>
  <path class="cls-2" d="m115.9 45.4c-1 2-2.3 5.2-2.5 6.3"/>
  <path class="cls-2" d="m112.6 57.4c-0.7 2-1.7 4.9-1.7 5.5"/>
  <path class="cls-2" d="m112.6 55.7v-1.3"/>
  <path class="cls-4" d="m140.1 51.7-1.7 2.7"/>
  <path class="cls-3" d="m74.6 15.6 1.6 2.3 0.9-2.5"/>
  <path class="cls-3" d="m72.5 25.2 1.6 1.9 0.8-2.8"/>
  <path class="cls-3" d="m81.9 23.2 1.5 2.4 1.7-3"/>
  <path class="cls-3" d="m77.9 32.4 1.6 3 1.6-3"/>
  <path class="cls-3" d="m73.4 41 2.8 1.8v-2.9"/>
  <path class="cls-3" d="m81.9 44.7 0.7 3 2.4-2.1"/>
  <path class="cls-3" d="m86.3 38.6 0.8 2.6 3.3-3"/>
  <path class="cls-3" d="m86.3 32.1c0.4 2 0.4 5 0.3 5.3"/>
  <path class="cls-3" d="m13.6 46.3 1.6 2.1 1-2.5"/>
  <path class="cls-3" d="m9.4 55.1 2.2 1.8 0.2-3.8"/>
  <path class="cls-3" d="m8.7 61.9c1.4 4.2 4.4 7.6 4.4 7.6"/>
  <path class="cls-3" d="m11 61.3c1.4 2.7 3.5 5.8 3.5 5.8"/>
  <path class="cls-3" d="m11.5 70.4 3.7 0.1-1.6-2.9"/>
  <path class="cls-3" d="m17.6 61 3.1 2 0.2-4.4"/>
  <path class="cls-3" d="m22.2 50.2 2.2 2.9 1.7-5"/>
  <path class="cls-3" d="m27.1 62.3 1.9 2.8 1.2-2.8"/>
  <path class="cls-3" d="m27.4 71.6 1.7 3.1h-3.6"/>
  <path class="cls-3" d="m34.4 72.2 1.8 1.2 0.5-3.5"/>
  <path class="cls-3" d="m35.9 77.1 1.7 2.7-2.2-0.3"/>
  <path class="cls-3" d="m43.2 41.6 2.2 1-0.4-2.3"/>
  <path class="cls-3" d="m47.9 37.9 1.5 2 1-2.8"/>
  <path class="cls-3" d="m49 45.7 2.2 2.7 0.7-2.8"/>
  <path class="cls-3" d="m45.9 53.1 2 1.6v-2.6"/>
  <path class="cls-3" d="m51.4 58.9 2 2.1 0.7-2.4"/>
  <path class="cls-3" d="m56.2 55.4 0.5 2.2 1.2-1.9"/>
  <path class="cls-3" d="m53.9 52.9 0.2 4.2"/>
  <path class="cls-3" d="m53.9 39.9 0.7 2.5"/>
  <path class="cls-3" d="m57.1 45.4-0.4 2"/>
  <path class="cls-3" d="m58.6 48.6v3.5"/>
  <path class="cls-3" d="m49.4 65.1 2.5 1.6 0.5-2.3"/>
  <path class="cls-3" d="m48.2 78.4 1.7 2 0.8-2.5"/>
  <path class="cls-3" d="m46.1 87.9 2.5 1-0.4-2.8"/>
  <path class="cls-3" d="m53.1 92.1 3.8 2.6v-2.8"/>
  <path class="cls-3" d="m56.7 106.9 3.4 1.7-0.2-2.9"/>
  <path class="cls-3" d="m65 102.1 1.7 1.5 0.5-3"/>
  <path class="cls-3" d="m66.7 87.8 1.4 2.3 1.1-2.5"/>
  <path class="cls-3" d="m55.6 83.1 3 1.5v-4.7"/>
  <path class="cls-3" d="m60.9 77.9 2.5 2"/>
  <path class="cls-3" d="m73.4 75.4 2.2 2.7 0.8-3.7"/>
  <path class="cls-3" d="m79.4 69.1 1.1 3.3 2.1-2.5"/>
  <path class="cls-3" d="m86.1 67.9 0.6 2.2 2.9-2.5"/>
  <path class="cls-3" d="m87.1 72.1 0.9 3.3"/>
  <path class="cls-3" d="m90.1 79.5 1 1.9 1.8-2.5"/>
  <path class="cls-3" d="m97.1 73.9 1 2.2 1.6-2.2"/>
  <path class="cls-3" d="m101.9 66.9-0.8 6"/>
  <path class="cls-3" d="m101.9 80.2 1 4.5 4.7-2.8"/>
  <path class="cls-3" d="m93.7 87.6 0.5 3.4 3.9-2.4"/>
  <path class="cls-3" d="m84 89.1 1.2 2.9 1.9-2.1"/>
  <path class="cls-3" d="m77.9 99.2 2 2.9 1.2-4"/>
  <path class="cls-3" d="m84.6 99.6 1.5 4.3 2.3-2.5"/>
  <path class="cls-3" d="m94.1 105v3.9l2.8-1.3"/>
  <path class="cls-3" d="m100.4 95.1 0.1 2.8 3.1-1.5"/>
  <path class="cls-3" d="m107.6 92.9 2.8-1.3"/>
  <path class="cls-3" d="m107.6 92.9v-0.8-0.2l0.8-2"/>
  <path class="cls-3" d="m103.6 105.9 3.1-0.5"/>
  <path class="cls-3" d="m103.6 105.9 1.3-2.7"/>
  <path class="cls-3" d="m94.1 114.6-0.7 3.4 2.5-0.4"/>
  <path class="cls-3" d="m83.9 115.5 3.2-1.4"/>
  <path class="cls-3" d="m83.9 115.5 0.1-3.5"/>
  <path class="cls-3" d="m74.4 109.9 2.7 2.5 0.5-2.9"/>
  <path class="cls-3" d="m78.2 117.6 1.2 2.5"/>
  <path class="cls-3" d="m112.4 63.6 1.2 2.5 1.8-2.7"/>
  <path class="cls-3" d="m112.4 70.9v3.1l2.2-0.9"/>
  <path class="cls-3" d="m122.1 61.3-0.5 3.8 3.8-1.5"/>
  <path class="cls-3" d="m117.6 52.4 1.4 2.7 2.6-4.1"/>
  <path class="cls-3" d="m127.6 45 0.6 3.6 3.9-3"/>
  <path class="cls-3" d="m132.9 54.7-0.8 3.2 4.1-1.5"/>
  <path class="cls-3" d="m129.9 66.1-1.5 2.5 3.3-0.5"/>
  <path class="cls-3" d="m120.4 39 1.7 2 1.5-2.4"/>
  <path class="cls-3" d="m128.6 34.7 0.8 3.9 2.7-2.2"/>
  <path class="cls-3" d="m138.1 38.6-0.5 3.3 3.5-1.3"/>
  <path class="cls-3" d="m140.9 46.1-1 2.8 2.5-0.8"/>
  <path class="cls-2" d="m43.1 47.6 0.9 1.8"/>
  <path class="cls-2" d="m47.1 94.4 2.5 5.9"/>
  <path class="cls-2" d="m63.4 92.6 0.8 2.1"/>
  <path class="cls-2" d="m66.4 108.6 1.6 4.5"/>
  <path class="cls-2" d="m62.6 111.1 0.1 0.3"/>
  <path class="cls-2" d="m63.4 120.4 0.3 0.4"/>
  <path class="cls-2" d="m77.4 94.9-1.3 4.1"/>
  <path class="cls-2" d="m80.1 89.4-1.7 3.7"/>
  <path class="cls-2" d="m84.6 83.9-1.5 2"/>
  <path class="cls-2" d="m77.4 89.4 1 1.2"/>
  <path class="cls-2" d="m70.9 82.4-0.8 1.2"/>
  <path class="cls-2" d="m71.4 80.4 1.5-1.3"/>
  <path class="cls-2" d="m74.9 83.4 2 1.7"/>
  <path class="cls-2" d="m77.6 84.4-0.2 2"/>
  <path class="cls-2" d="m77.6 84.4-2.2 3.2"/>
  <path class="cls-2" d="m77.6 81.9-1.7 2.7"/>
  <path class="cls-2" d="m81.1 78.9v0.6"/>
  <path class="cls-2" d="m85.4 65.4h0.7"/>
  <path class="cls-2" d="m102.6 74.4 0.5-0.5"/>
  <path class="cls-2" d="m89.2 126.3-0.8-0.4"/>
  <path class="cls-2" d="m88.4 125.9 2 0.4"/>
  <path class="cls-2" d="m74.6 69.1-0.2 3.3"/>
  <path class="cls-2" d="m79.4 106.4-0.8 3.1"/>
  <path class="cls-2" d="m114.4 69.9 2-2"/>
  <path class="cls-2" d="m100.9 102.1-3.8 7.4"/>
  <path class="cls-2" d="m120.1 88.4-2.7 1.5"/>
  <path class="cls-2" d="m116.4 43.9 0.2 1.5"/>
  <path class="cls-2" d="m77.7 48.6 0.7 2.3"/>
  <path class="cls-2" d="m90.9 45.6 0.2 1.5"/>
  <path class="cls-3" d="m54.1 67.1 1.3-3.2"/>
  <path class="cls-2" d="m68.9 54.4 2-0.3"/>
</svg>