<svg xmlns="http://www.w3.org/2000/svg" viewBox="0 0 150 150">
<!-- SVG created with Arrow, by QuiverAI (https://quiver.ai) -->
  <style type="text/css">.cls-0 {fill:none;stroke:#C2B59B;stroke-width:0.67;stroke-linecap:round;stroke-linejoin:round;stroke-miterlimit:10;}
.cls-1 {fill:none;stroke:#C2B59B;stroke-width:0.33;stroke-linecap:round;stroke-linejoin:round;stroke-miterlimit:10;}
.cls-2 {fill:#C2B59B;}</style>
  <path class="cls-0" d="m74 2.4c-2.8-0.2-4.7 1.6-5.7 6.6-0.7 5.4-0.3 13.6-0.3 15.6-1.2 2.4-0.4 3.4-0.6 5.1s-0.2 4.3 0.2 6.3l-0.5 0.4c0.8 1 1.1 3 1.1 3-0.8-2.9-2.6-5.2-4.7-5.2-4.4 0.2-5.3 2.9-5.3 7.4 0 3 1 4.3 0 6-0.6 1.8-0.1 4 0.9 6 0.5 1.8-0.2 2.3 0.8 6.6 1.1 3-0.2 3.4 1.1 6.2 1.4 2.7 2.1 6.8 4 9.7l-0.6 0.5 0.1 3c-0.8-1.4-3.3-2.4-5-6.5-2-4.7-3.5-11.5-4.9-16.1-1.5-2.1-0.5-4.1-1-5.4-0.5-2.7-0.2-7.9-1.9-11.6-0.7-1.1-4.2-2.1-5.7 0.6-1 2.8-1.6 8.3-1 9.6 1 2.5 0.5 3.2 0.5 3.7s1 2.7 0.5 4.3c0.7 1.8 1 2 0.6 3.2-0.4 2.8 1.5 5.2 1.5 7.7s2.1 7.8 3.6 10c1.7 3.3 5.2 9.1 8.9 9.1 1.5 0 2.5-0.3 2.9-0.5l0.1 0.9c0.4 1.5 0.4 1.5 0 3 0 2 0.4 2.3 0 5l1 11c1.1 2.5 1.1 6 1.1 7.5 0 4 1.4 8.3 0.8 10l-0.6 1.5c0 2 1 3.9 0.7 7.5-0.7 1.5-0.6 1-0.6 2.8l-0.4 6.7c0 0.5 0.8 0.9 2.4 0.9 2.1 0 2.6 0.1 3.6-0.4 0.9 0 1.4 0.3 3 0 1.8-0.7 3.9 0 5 0.3 1.4 0.1 3.4 0.2 3.4-0.5-1.4-4-1.6-8.5-1.4-10.5 0.5-3-0.1-2.8 0.8-5.3 0.7-1-0.7-2.2-0.7-3.7 0-1.3 1.4-2.3 0.9-4.8-0.5-1 0-2.2 0-4.5-0.5-1 0.4-2 0-3.2l1-10.3 1-6.5c-0.5-1.7-0.2-3.2-0.2-5l0.2-3.7c-0.5-0.3-1-0.9-2.1-2.3-0.8-2.2 0.5-5.2 1.1-5.5-0.5-4-1-6-0.6-7.5 0.5-2.4-0.4-2.5 0-5 0.5-2.5-0.4-6-0.4-6.5l0.5 0.3c2.3 0.5 3.4-0.8 4.3-1.3 3.6-3.5 5.7-10.5 6.1-18.5 0.6-3.7 1.9-9.7-1-15.2-0.5-0.8-3.5-1.3-4.6 1-1.4 3-1.9 8.7-2.5 10.5 0 4-0.9 6.7-0.9 8l-2.5 4.5-0.9 3.2c0-2.7-0.1-6.2-0.5-8l0.9-5c0-2.2-0.4-7.2-1-8.5-1.1-2.5 0.1-4.5 0.1-6.2 0-3.3-0.1-5.3-0.5-9.8 0.4-3-0.6-9-2.6-11.2-1.1-1-1.5-1.2-2.6-1.2l-0.9 0.2z"/>
  <path class="cls-1" d="m69.4 140.6c-0.2 1.5-1.9 0.3-1.8 3.8"/>
  <path class="cls-0" d="m67.5 126.6c-0.3 0.8 0 1.3 0.4 1.5-0.3 1.3 0.2 2 1.6 1.6l1.4 0.7 1.3-0.5c0.9 1 1.3 0.7 1.4-0.5 0.4-0.8 0.4-1.8 0-2.2l-0.5-0.1 0.4-0.7 0.6 0.5c0.6-0.5-0.2-2-1-1.3"/>
  <path class="cls-1" d="m68.6 126.9-0.6-0.5"/>
  <path class="cls-0" d="m69.6 79.1c1.8 0.3 4.1-2 4.3-4.2-0.4-3.5-1.3-6-1.5-9.8l-1.5-6.7-1.5-9.8-1-4.9"/>
  <path class="cls-0" d="m80.6 53.9c-0.2 1.5 0.9 6 3 6"/>
  <path class="cls-1" d="m68.6 135.6c0.9 0.9 0.6 2.8 0 3.3-1.1 1.7-1.4 3.2-1 5.5"/>
  <path class="cls-0" d="m75.6 120.6 0.3 1.5c0.6 1 2-0.7 1.3-2l-0.7-3.2"/>
  <path class="cls-1" d="m78.1 124.6c0.4-2 1.4-2.5 2.3-2"/>
  <path class="cls-0" d="m75 120.9"/>
  <path class="cls-1" d="m69 135.9v0.5"/>
  <path class="cls-0" d="m69.5 129.9 0.6 0.6"/>
  <path class="cls-1" d="m70.9 130.1 0.6 0.4"/>
  <path class="cls-0" d="m72.2 129.9 0.4 0.6"/>
  <path class="cls-1" d="m73.2 127.4 0.2 1.7m2.7-8.5 0.9-0.5"/>
  <path class="cls-0" d="m70.7 3.1v-0.5m-1.3 1.5-0.4-0.5m-0.8 3.5-0.6-0.4m0.3 1.4-0.5-0.2m0 3.7-0.5-0.5m0.3 3.3-0.6-0.3m0.8 1.8-0.5-0.3m0.7 3.3-0.7-0.3m0.7 4.3-1-0.2m1 4.4-1-0.7m0.5 3.7-0.9-0.2m1 3.7-0.6-0.5m1 1.5-0.7-0.5m0.5 2.3-0.5-0.5m-9.2 2.3-0.1 0.2v0.2m1-1.7v-0.2l-0.1-0.1m2.9-2.2-0.4-0.8m2 0.8v-1m1.6 0.5-0.1-0.5m-19 8-0.9-0.3m0.8 1-0.8-0.2m0.3 2.7-0.8-0.2m0.5 1.7-0.5-0.2m0.5 2.2-0.6-0.2m0.6 1.7-0.6-0.2m1.1 5.2-0.5-0.5m0.9 3-0.5 0.3m0.5 1.5-0.5 0.2m1.1 3.3-0.7-0.3m0.6 2.3h-0.1m1.7 4.7h-0.7m2.1 6.3-0.6 0.2m2.1 2.6-0.4 0.4m1.9 3-0.6 0.3m2.2 2.2 0.4-0.2m0.9 2.2 0.5-0.5m3.2 3.5 0.3-0.9m30.5-63.8-0.3-1m2.5 1v-0.8m2 2.8 0.4-0.5m0 2 0.6-0.3m0 4h0.6m-0.8 2 0.6-0.7m-0.9 3.7 0.5-0.2m-1 3.5 1 0.2m-1.7 5.5h0.7m-2 6.5h0.4m-3.4 5 0.5 0.8m-2.5 1.5 0.5 0.2m-5.7-47.2-0.3-0.5m-0.2 4 0.5 0.2m-0.4 2.3 0.4 0.2m-0.5 2h0.5m-0.5 0 0.5 0.3m-1 3 1 0.2m-1 2.8 0.5 0.2m-0.5 0.5h0.5m-0.5 0 0.5 0.5m0.2 6.8 0.9-0.3m-0.6 0.5 0.6 0.3m0 3.7h0.6m-1.5 4.5 0.5-0.2m2 0 0.9 0.5m4.9 3.5h0.5m3.8 6.2h0.7m-1 2.8 0.6 0.2m-1.4 3 0.5 0.8m-1.1 2.2 1.1-0.2m-2 3.2 0.5 0.8m-3 5.2h0.5m-1.7 2.5h0.5m-2.5 2.8 0.5 0.5m-2.3-2.3 0.4 0.3m-0.9-2.3 0.5 0.3m0-2.8 1-1m-1.5-3 0.5 0.8m0-3.3 0.4 0.5m-0.4-1.2 0.4 0.7m-0.9-1.5 0.5-0.5m-3.5 0 0.5-0.5m-0.5 3v0.3 0.2m0 0.5 0.3 0.5m-0.3 9.5v0.3l0.3 0.2m-0.3 0.5 0.5 0.8m0.3 4 0.5 0.2m-0.5 8.5 0.2 0.4h0.3m-1 4.1 0.5-0.2m-1 2.7 0.5 0.5m-0.8 2.8h0.8m0 5.5 0.5 0.5m1.7 8.7-1.2 1m1.6 1 0.6 0.3m-1 2.7 0.9 0.5m-0.9 2.5h0.4m-1.4 11.3 1.3-0.5m-0.9 0.7 0.6 0.3m-0.6 4.7 1 0.3m-20.6-48.3 0.6 0.5m0 1.8 0.4 0.5m-0.5 3.2 0.5 0.3m-0.4 1.2 0.6 0.5m-0.6 2.5 1 0.3m-0.9 2.7 1 0.5m-0.6 2.6 1 0.4m-0.1 4.5 1 0.5m-1 5 1 0.3m0 4.5 0.7 0.5m-0.7 7 0.7 0.2m-1 8 0.9 0.5m-1 1 0.6 0.3m39.9-95.3-0.9-0.5m0.9 4.8h0.4m-0.5 1.7 1-0.5m-1.8 8 0.9 0.3m-2.1 4.2 0.6 0.3m-1.9 5.7h0.4m-1.6 5h0.7m-3 2.5-0.5 0.3m-1.6 4h1.4m-4.4 3.2 0.9 0.8m-2.8 0.7 0.6 1m-4.8 0.3 0.2 1m-3 0.2 0.5 0.5m-2.2 2.5 0.6 0.3m-0.5 5.2v0.5m0.6 2.3h0.8m-0.8 0.7 0.8 0.3m-1 2.5 1 2.7m-1.8 2.5 1.4 0.5m-1.4 2.3h1.4m13.1-66.5-0.5-0.5m-43.5-3 0.3-0.5m-2.3-1.8v-0.7"/>
  <path class="cls-1" d="m69.4 8.1c-0.8 2.3-0.9 6.8-0.8 7.5l0.4 2-0.4 2-0.2 5 0.2 1-0.6 3-0.1 8 0.3 3.5-0.1 2 0.5 1m2.5-40c-1.5 2.3-1.7 7-1.7 10 0.5 3.3 1.1 4 0.5 5.3l-0.5 6.5 0.7 1.7 0.4 2-0.4 13.5 0.4 14.3 1 6 1.6 7m-0.7-66c-0.9 2.5-1.3 7.7-0.8 10.7 0.6 3.5-0.1 4.3-0.2 6.8l1 4.7-0.5 1.5 0.2 1.5-0.2 9 0.2 5 0.4 17.3-0.6 3 0.6 1.5 0.1 2.2m0.5-63.5c-0.5 2.5-1.1 7.8-0.7 12 0.2 3.3-0.9 4.5-0.5 6.5l0.7 1.5-0.5 0.8m2-21c0 4.7-0.4 17.5 0 24.7l-0.2 1 0.2 6.3-0.2 8.2 0.7 14.8-0.1 7 0.1 8.7-0.5 19.8 0.3 6.7 0.1 5.3m0.1-102.4 1 3.9 0.4 5-0.1 15 0.2 9.2 0.8 18 0.3 11.3-0.1 1 0.3 1.7-0.3 1.5v7l0.3 9.8v3.2l-0.4 8.3 0.1 6.7-0.5 3.5m-1.2-105.5c0.6 1.5 2.2 6.8 2.2 8.3 0 3 0.3 7 0.3 7l0.2 2.2-0.6 1.8 0.1 1.5-0.1 0.2 0.5 1-0.6 3c0 2.8 0.5 3.8 0.5 5.5 0 3.5 0.6 3 0.1 7l0.4 4.3-0.3 0.5 0.4 1.7-0.1 1 0.7 4.5c-0.2 2.5 0 4.5 0.5 6.3v5c-0.5 2.2 0 4.2 0 5.2l-0.1 2.3 0.1 5.5 0.3 1.7v3.5l0.2 0.3 0.3 0.7-0.3 12.8-1.5 12.2v6l0.5 6m-2-116.2c0.5 2.2 1.5 5.2 1.5 7.5 0 2.7 0.5 3 0 5.5l0.5 4.2v3.5l-0.6 2.5c-0.4 1.3 0.4 4 0.6 3.8l0.5 1.7v1.5l0.8 3v7.3l0.2 1 0.3 3.5 0.2 3.2m1 8.5v2.8l-0.2 5.2 0.2 1.8-0.5 3.5 0.5 5.7m1.5-18.7c0 1.5 0 5.2-0.5 6.7l0.5 2c-0.6 2-0.5 4.3-0.5 5l-0.1 1.3 0.6 1 0.4 1.7m-15.4 53.3 0.8 0.5v-1.3m-1 6.8 0.2 1.2-0.5 1-0.5 2.3m3.8-99.5-0.3 5.5 0.5 3.2 0.5 8-0.2 5.5m-10.5-29.5c-1.4 2.5-1.4 5.8-1 8.3l1 8.7c0.7 4 1.7 7 2.1 10.3l1.9 6 2.7 5.7 2.4 3.8 0.6 0.7-1.5 0.3c-3.2-1-5-4-6.5-7.8l-2.1-6.2-0.4-5.3 0.3-4-0.3-2c-0.5-0.7-1.2-3-0.6-4.7l-0.6-7.3c0-2.5 0.5-5.2 2-6.5zm1.2-0.5c2 2.3 2.9 8 3.4 12l1.4 9 1.2 2.8c0 2 2.8 11.7 4.5 16.5m-9-39.8c1.3 1.5 3 5 3.3 8-0.3 3 0.5 3.5 1.2 6l0.8 2v4l1.1 2.3m-7.4-22.3c1.5 3.3 2 9.5 2.5 13l0.8 7 0.7 2.3 0.8 6 1.5 5.7 2.7 5v2.5m-10-41.7c-0.6 3 0 8 0.3 11.5 0 4.5 1 7.5 1.7 11l0.9 5.7 1.4 5 2.6 5.8 1.9 3 0.5 1-1.5 0.5c-2.5-0.8-5.3-8.5-6.5-12l-1.3-6-0.6-1.3 0.6-0.7-0.7 0.7m1.7-1.2h1l-0.5 0.7m3.3 0 0.7 1.5-1-0.5m2.8-1.7v0.7m0.2-6.2 0.5 1.2-0.6-0.5m-0.5-9-0.4-2-0.5 2.3 0.5 3.5 0.8 0.5m-2-8 0.5 0.7m-0.8 3.3 0.8-0.5m-1.8 0.7 1.3 3.3m-2 1.2h0.6l-0.4 0.5m1.5 1 0.5 0.5m-0.2 3h0.7m-0.7 0 0.5 1.3m-20-15.5c-0.9 4.2-0.4 10 0.5 13.5l-0.5 0.5 0.7 3-0.7 1.5 0.5 2-0.3 4.5 1 3c0.3 5.2 2.8 10.2 4.9 13.5 2.6 4 6.1 6.5 8.1 6.5l0.9-0.5-0.4-0.5-3.2-2.3-1.8-1.7m-8.2-42.5 0.7 9.5 1.9 10 0.9 4m-2.8-23.8c0.8 2.3 1.9 8 1.9 10.8l0.4 4.2m-1.3-12.7h0.3m0.6 0c0.9 2.2 1.4 5.5 1.1 8.2-0.5 2 0.9 3.5 0.9 5l0.9 1.8 1.7 7.2 2.4 7.5c1.4 4 3.4 6 5.1 7.5m-11.7-31.7v0.2h0.2m-0.6 6.5 0.4 0.5m0 1 1.2 7.5 0.5 0.5c0.9 1.5 2.5 7.3 3 8l-0.5 0.5 0.5 1c1.4 1.8 4.8 6.5 7 7.3m-11.7-24.8 0.7 0.3-0.5 0.2m-0.2 12-2.3-4.5c0.4 3.8 1.8 8.5 3 10.8 1.8 4.7 4.5 9 9.5 11.5m-11.2-13.5 0.6 0.2-0.6 0.5m4.7 2.8 0.5 0.2m-0.5 5.8c1.8 2.2 4.3 3.7 6.5 4.7m27.3-62.5c-1 3.3-1 6.8-2 10.5l-1.3 1.3 0.5 0.7-0.2 3.8-1.5 4.7-2.8 5.8-1.7 2.2 0.2 1.3 0.9 2 0.6 1.5 1.4 0.7c2.9 0 6.5-4.7 8-10.5 1.1-5.7 1.9-13.5 1.4-18.5-0.4-2.5-0.9-5-2.3-5.5m-1.7 0c-0.9 2.3-1.3 6.5-1.8 10.5l0.3 0.3-0.5 2v1.7c0 3.3-1.5 12.5-5.8 16.5m8.9-31c-0.4 2.5-0.9 9-1.4 10.5v0.5c-0.2 1-1.2 2.3-1.2 3.8 0.2 3.7-2.3 14.5-6.5 16.5m10.2-29c0.9 5.7-0.7 18-3 22.5-1.5 4.5-4.2 7.5-7 8.7m11.5-18c-0.5 6.5-3 16.3-8.5 19.3m-1.5-1h1.5c2-0.8 4.5-4.3 4.5-4.3"/>
  <path class="cls-1" d="m81.4 57.6c1.2-0.7 3.2-1.2 4.5-3.5m-3.5 3.8c1.1 0 3.5-1.8 4.7-3.5m-3.5 4.2c1 0 3.3-2 4.3-3.5m-5.3 28.8c0.3 0.7 0.3 1.2 1 1.7l1 1.3c3.3 1.7 7.5-0.5 10.4-3.5 3.6-4.3 6.6-8.8 8-18.3 0.5-3.2 1.6-5 1.6-7.7l0.8-4.8c0-3.5-0.8-8.2-4-8.7-2-0.3-5.5 2.2-6.4 7.2 0.1 3.8-1.4 6.5-1.4 8.5 0.3 3.3-1.2 4-1.6 8l-0.9 1-1 3-4.2 5-0.5 0.3v0.7l-1.8 1c-1.2 0.8-2 2.8-1.6 5l0.6 0.3zm0.4 0 1.4-0.5 3-1.3c3.7-1.7 6.2-6.7 6.6-8.2m-10.4 10.7 1.5-0.2c4.3-0.3 9.3-6.3 11.8-13.3 1.2-1.5 1.7-5.2 2.2-8.5 0.3-3.2 2-7 2-18.2m-17.1 41.2c4.1-0.2 5.9-2 7.1-2.7l-2 1.5c-1.5 1-3.2 1.5-4.5 1.5m0.5 0.2c2 0.5 5.4-1.7 7.5-4m-6.7 4.5c2.2 0.5 5.7-2.2 8.1-4.5m-8.6 4.8c2.5 0.5 6.2-2 9.7-5.5"/>
  <path class="cls-1" d="m84.4 80.1-1.8 0.5m3.3-0.7 1.7-1.3c1.5-1 5-6 6-10.5l0.8-1.5 0.7-2.5-0.5 0.3 0.8-4h-0.8l0.8-2.5c0.7-0.3 0.7-2.3 0.5-4 0-3.3 1.2-7.8 3.5-9.8m-4.8 16.3c0-2 0.8-2.3 1.3-3 0-3.8 0.2-9.8 3.2-13m-4.5 16c0 1.7-1.2 5-1.5 6.2m6.8-22.2c-1.3 3.2-3 7.5-2.8 11.2 0.3 2-1.2 3-1.2 5.5 0 2.3-1.3 5.8-2.3 7.5-0.5 2.3-3.5 8.3-7 10.3m13.3-34c-0.8 2.7-3 8.2-2.8 9.2m1.5 1.5-1.7 6.3m0 2.5c-0.3 2-1.3 4.7-1.8 5.7m6.3-25.7c0.7 2.2 0.7 8.2 0 12.2l-1.3 5.5c-0.5 3.5-1 6.5-2.5 9v1l0.5-0.5-3.5 7.5-1.5 1.8-0.5 0.7-0.6 0.5m10.1-37.7c1 1.5 1.9 5.2 1 9.5 0.3 3.7-2.2 8-2.7 11 0 4.2-3.8 11.7-6.4 15l-0.9 1.5-0.5 0.5-1 0.7m11.5-37c0.9 2.8 0.5 8 0 11 0 3.3-2 5.3-2 9-0.5 5-3 10-4.5 12.3l-1.5 2-2 2.2"/>
  <path class="cls-1" d="m83.6 141.6 9 0.5h-9.2l13.5 1-13.8-0.2 13.5 0.5h-13.5l22.3 0.5h-18.3l26.3 1-29.8-0.5 16 0.2-16.5-0.2 10.5 1.2-10-0.5 11 1.3-13.7-0.8-23 1h26.1l-14.5 0.3-12.9 1.5 33.5-0.5 3.9 0.2-26.4 0.5m13.5-2h-10.6l4.5 0.5 6.1 0.5-32-1 21.4-0.5-12.6 0.5 10.7-1-23.7 1 3-0.5-3.9-0.2 21.9-0.8-24.5 0.3 3.2-0.5 20.4-1-19.9 0.2 19.9-1.2-14.4 1 3-0.3 12-0.2-9.5 1h8.3l-10.3 1 10.9-0.5-14.4 0.7 17.5-0.5h-17.5l16.5-0.7h-16.5l14.4-0.8-9.1 0.5 9.1-0.7-13.6 0.7 4-0.5h8.7l1.5-0.5-15 0.8 4.5-0.5 9.9-0.5h-14.4l1-0.3 13.4-0.5"/>
  <path class="cls-2" d="m65.6 77.6 0.4 3.8 0.1-3.3 0.3 4 0.2-3.5 0.3 4 0.2-3.7v4l0.3-3.8v3.5l0.5-3-0.8 4.8 0.3 0.5-0.5 5.2 0.7 7.8-0.2 1.2 1.7 18.3 0.3 8.7 0.2-0.2v-3.8h0.9l-1.9-15 0.8-0.5h-0.8l-0.2-3.7 0.6-0.3-0.6-0.2-0.3-2.5h0.5l-0.5-0.5-0.1-2.8 0.1-1.7-0.2-2.8 0.7-0.5-0.2-0.5-0.5 0.5v-2.5l0.2-4.5-0.2-5.5-0.3-0.5-0.2 4.3-0.5-4.8zm1.3 9.3v0.7l0.7-1.5zm0 6 0.7-0.3-1-0.2zm-0.3 3.5 1 1-0.7-1.3zm0.8 7 0.2 0.7 0.3-0.7zm0.2 3.5h0.8l-0.8 0.7zm0.3 7-0.5 2.2 0.7 3-0.2 1.5 0.7 2.8-0.2 2 0.2 0.5-0.2 1.2 0.7 0.5-0.5-4.2-0.2-4 0.2-0.3-0.7-4.7-0.3-5.8zm1.5 8.2h0.5l-0.5 0.5zm0.2 9.3 0.9-1-0.9 0.2zm-1.2 0 0.7 1-0.7-0.3 0.7 0.8-0.7 1.5c-0.5 2.5 1 2.2 1 2.2l-1-0.5-0.5 3.3-0.8 3.2 0.5-0.5 0.5-3.2 0.5 0.5-0.2-1.5 0.7-1.3-0.5-0.2v-2.5l0.8-1.8-0.3-0.7zm1.2 10 0.5 0.7-0.5 0.5h0.9l0.6-0.7h-0.6l0.4-1-0.4-0.3-0.4 1.3-0.7-0.3 0.2-0.2z"/>
  <path class="cls-2" d="m74 140.1v-0.5c0.9-1 1.6-1.2 2.1-1.2 0.4 1-0.1 1.5 1 2.2h-1l0.4-1.7c-1 0-1.9 0.7-2.5 1.2zm-2.6-1c-0.5 0.5 0.2 1.5 1 1.3 0.7-0.8-0.3-1.5-1-1.3zm0.5-6-0.3 1h-0.2v0.5l0.2-0.2 0.5 2.7 0.5-0.7 0.3 0.2v-0.7l-0.5 0.5-0.5-2.5h0.2zm3.7-2-0.6 2 0.6-0.2-0.2 1 0.6-0.5-0.1 1.7h0.2v-1.2l0.4-0.5-0.9-0.3 0.3-0.7-0.5 0.2zm1.5 3.3v0.7l1.3 1.5-0.3-0.7-1.2-1zm0.3 0.2 0.7 0.5-0.2-1zm1 1.5 1 1-0.8-1zm0.5 0 0.2 1.8 1.3 2.2v3l0.5-1.7-0.5-1.8-1-1.7-0.3-1.5zm-1.3 5.5 0.3 1.5 0.2-1.2zm0.3 0 0.7 1v-0.5zm1.5-12.5-0.3 0.5-1.2-0.5 0.5 0.8h1v5.5h0.2l-0.5-5.3 0.8-0.2v1.2l0.2-1v-0.7l0.3-0.8-0.8-0.7 0.3 0.7-0.5 0.5h-0.5zm-1-5.2 0.5 0.5-0.8 0.5 0.5 0.2-0.5 1.3 0.5-0.3v-1h0.8v1.5l0.2-0.7v-1l-1.5-1zm2-0.5 0.5 1.7v-1zm-1 0.7 0.7 1.8 0.3 0.2-0.3-1.5zm1 9.3v3l0.7 2.7-0.2-3 0.7 3.5-0.7-6.2-0.3 3.7zm-5.8-24.3-0.6 0.8 0.1 0.2zm-1 6.8v3.2h0.3zm1.4-5h0.4l-0.9-0.5zm0.4-0.8v-0.5l-0.8 0.8zm0.2-14.5-0.2 14.3 0.5-8.3 0.2-0.5-0.5-0.2 0.5-0.8-0.5 0.5zm0.8 9.8 0.2 3 0.3-2.5 0.2 0.2-0.6-1zm0.5 9 0.2 1.5 0.3 0.2zm-1.3-22 0.3-0.3h-0.5zm0-9.8h0.5v-1l-0.2 0.8zm0-13.7v8.2h0.3zm1 16.5 0.5 0.2-0.2-0.5zm1.5 1.7 1.3 0.8-0.3-0.5h-0.5l0.5-1zm-0.5 4.5 0.5 1.3-0.5-1.8zm-3.5 6m-1.2-0.5h-0.3m-0.7-1 0.2 0.5v-0.7zm0.2 4.5 0.5 5h0.3zm-1.7 14.3 0.7 0.2-0.2 1 0.5-1v-0.5zm-0.8 13.2 0.9 0.3v-0.3l-0.6-0.2zm-0.2 13.3v0.2l1.1-0.2-0.4-1zm0.7-11.3v1l0.4-0.7z"/>
</svg>