<svg xmlns="http://www.w3.org/2000/svg" viewBox="0 0 150 150">
<!-- SVG created with Arrow, by QuiverAI (https://quiver.ai) -->
  <style type="text/css">.cls-0 {fill:none;stroke:#77694F;stroke-width:0.8978;stroke-linecap:round;stroke-linejoin:round;stroke-miterlimit:10;}
.cls-1 {fill:#B9C2AA;}
.cls-2 {fill:#D6DCCD;}
.cls-3 {fill:#A2AA92;}
.cls-4 {fill:none;stroke:#77694F;stroke-width:1.7956;stroke-linecap:round;stroke-linejoin:round;stroke-miterlimit:10;}
.cls-5 {fill:#77694F;}
.cls-6 {fill:none;stroke:#77694F;stroke-width:0.8978;stroke-linecap:round;stroke-miterlimit:10;}
.cls-7 {fill:none;stroke:#77694F;stroke-width:1.5;stroke-linecap:round;stroke-linejoin:round;stroke-miterlimit:10;}</style>
  <line class="cls-0" x1="117.8" x2="118.6" y1="5.9" y2="1.9"/>
  <line class="cls-0" x1="130" x2="133.8" y1="11.2" y2="8.5"/>
  <line class="cls-0" x1="136.9" x2="140.8" y1="22.1" y2="20.2"/>
  <path class="cls-1" d="m91.6 60c-3.4-9.1-3.6-18.9-2.6-26.2 1.6-10.1 10.6-27.3 26.3-27.6 16.7-0.3 22.8 14.8 22.5 25.7-0.3 15.1-10.9 27.4-24.5 34.1"/>
  <path class="cls-2" d="m94.1 59.9c-2.4-8.9-2.6-18.5-0.5-27.5 2.7-9.1 10.2-22.8 23.7-22.2 4.5-0.2 8.6 1.1 12.1 3.3-3.4-3.6-7.9-6.3-14.1-6.3-15.7 0.3-23.8 15.5-25.8 26.6-1.4 8.2-0.5 17.9 2.1 25.7l2.5 0.4z"/>
  <path class="cls-3" d="m131.7 15.2c1.6 4.5 2.9 9.3 2.5 13.8-1.2 16.1-12.8 25.9-24.8 34.1l3.9 2.9c12.2-4.7 23.5-17.6 24.3-31.6 0.3-6.8-2-14.1-5.9-19.2z"/>
  <path class="cls-4" d="m91.6 59.5c-3.1-8.2-3.8-18.4-2.1-26.8 2.1-10.1 10.1-26.2 25.8-26.5 15.3-0.3 22.6 13.8 22.4 25.3-0.2 13.1-8.8 25.8-24.4 34.1"/>
  <path class="cls-1" d="m51.3 98.7c-12.3-2.4-25.6-10.6-32.6-23.4-4.8-8.9-6.3-16.1-5.9-25.3 0.6-11.6 9.7-23.9 23.3-24 15.3-0.1 25 12.6 28.5 20.6 3.2 7.2 4 16 3.8 22.4"/>
  <path class="cls-2" d="m50.7 33.5 0.8 0.8 1.6-0.2c5.4 5.1 8.4 12.1 9.4 17.8 1.4 6.2 1.3 15.6 0.2 22.5l5.7-5.4c0.2-6.4-0.6-15.2-3.8-22.4-3.5-8-13.2-20.7-28.5-20.6-13.6 0.1-22.7 10.3-23.3 22-0.4 7.5 0.6 15.4 3.5 21.9 4.5 10 16.7 22.5 32.4 27.1-10.7-5.4-18.9-13.2-23.8-21.7-4.9-8.6-8-18.4-6.8-27.6 1.1-9.7 9.3-17.6 19.3-17.7 5 0 9.5 1.4 13.3 3.5z"/>
  <path class="cls-3" d="m48.4 29c6 4.5 10.1 10.6 11.9 15 3.5 7.9 4.4 18 3 30.4l5.1-5.4c0.2-6.4-0.6-15.2-3.8-22.4-2.7-6.1-8.4-14.2-16.2-17.6z"/>
  <path class="cls-7" d="m51.3 98.7c-12.3-2.4-25.6-10.6-32.6-23.4-4.8-8.2-6.5-16.1-6.1-24.9 0.6-11.6 9-24.3 22.6-24.4 15.3-0.1 23.3 10.1 27.5 17.2 4.2 7.2 5.9 17.4 5.7 25.8"/>
  <path class="cls-1" d="m58.5 141.8c-3.6-7.3-8-18.7-8-33.6 0-23 17.9-48.1 43.4-48.7 14.8-0.3 29 9.8 28.9 28.3-0.2 18.4-16.7 38.3-32.4 54h-31.9z"/>
  <path class="cls-2" d="m55.5 98.6c3-14.6 16.4-32.2 37-34.8 7.1-0.7 14 0.1 21.6 5.2-3.4-5.2-11-9.5-20.2-9.5-25.5 0.6-43.4 22.7-43.4 48.7 0 12.3 3.3 25 8 33.6h2.4c-4.4-11.1-7.5-30.8-5.4-43.2z"/>
  <path class="cls-3" d="m113.3 66.4c3.4 5.5 4.5 12 3.8 20.4-1.4 19.3-17.5 38.6-37.1 54.2l9.9 0.8c15.7-13.2 32.7-35.3 32.9-53.2 0.1-9.3-3.6-17.1-9.5-22.2z"/>
  <path class="cls-7" d="m58.5 141.8c-3.6-7.3-8-18.7-8-33.6 0-23 15.9-48.1 43.4-48.7 14.8-0.3 29 8.9 28.9 28.6-0.2 16.5-11.3 33.2-32.4 53.4"/>
  <path class="cls-6" d="m27.6 36.5 2.3 2.9v0.2h0.1v0.1l0.1 0.1-0.2-0.2"/>
  <line class="cls-6" x1="21.1" x2="24.8" y1="49.6" y2="52.6"/>
  <line class="cls-6" x1="32.8" x2="37.1" y1="70.9" y2="73"/>
  <line class="cls-6" x1="38.1" x2="39.9" y1="58.8" y2="60.9"/>
  <line class="cls-6" x1="43.3" x2="41.9" y1="43.1" y2="48.1"/>
  <path class="cls-6" d="m27.6 78.9c3.8 4.8 9.1 9.2 16.4 13.1"/>
  <line class="cls-6" x1="48.3" x2="50.6" y1="76.5" y2="79.5"/>
  <line class="cls-6" x1="55.3" x2="58.8" y1="67" y2="63.6"/>
  <line class="cls-6" x1="59.1" x2="61.9" y1="71" y2="74.6"/>
  <line class="cls-6" x1="50.3" x2="55.4" y1="85.9" y2="88.8"/>
  <path class="cls-6" d="m67.6 84.4 2.7 4.4"/>
  <path class="cls-6" d="m76 102 2 5.6"/>
  <line class="cls-6" x1="84.7" x2="86.3" y1="72.1" y2="77.9"/>
  <line class="cls-6" x1="97.4" x2="101.8" y1="38.8" y2="42.6"/>
  <line class="cls-6" x1="109.8" x2="114" y1="56.5" y2="52.6"/>
  <line class="cls-6" x1="103.6" x2="105.3" y1="21.4" y2="24.8"/>
  <line class="cls-6" x1="117.4" x2="119.8" y1="21.4" y2="17.5"/>
  <line class="cls-6" x1="122.1" x2="125.8" y1="35" y2="31.6"/>
  <line class="cls-6" x1="120.7" x2="125.4" y1="46.5" y2="45.8"/>
  <path class="cls-6" d="m118.3 86.9c0 4.4-1.2 10.7-2.2 13.4"/>
  <line class="cls-6" x1="105.6" x2="110.4" y1="85.3" y2="81.8"/>
  <line class="cls-6" x1="93.4" x2="96.2" y1="96.7" y2="94"/>
  <path class="cls-6" d="m55.4 111.1c0 3.3 0.4 8.2 1 11"/>
  <line class="cls-6" x1="61.3" x2="64.9" y1="114.3" y2="117.3"/>
  <path class="cls-6" d="m83.7 124.3 4.9-3"/>
  <line class="cls-6" x1="99" x2="105.1" y1="114.7" y2="113.9"/>
  <path class="cls-6" d="m94.4 132.2c2.3-2 5.9-5.8 8-9.1"/>
  <line class="cls-6" x1="89.5" x2="92.2" y1="136.5" y2="134.3"/>
  <path class="cls-6" d="m100.1 132 5.7 0.9"/>
  <line class="cls-6" x1="111.1" x2="115" y1="120" y2="121.4"/>
  <line class="cls-6" x1="118.5" x2="125.8" y1="100.8" y2="99.2"/>
  <line class="cls-6" x1="123.1" x2="126.4" y1="84.8" y2="83.9"/>
  <line class="cls-6" x1="111.8" x2="114.9" y1="64.6" y2="60.1"/>
  <line class="cls-6" x1="102.8" x2="104.2" y1="60.5" y2="55.4"/>
  <line class="cls-6" x1="111.3" x2="111.4" y1="34.9" y2="38"/>
  <line class="cls-6" x1="121.9" x2="123.6" y1="61.4" y2="63.5"/>
  <line class="cls-6" x1="132.6" x2="135.4" y1="49.8" y2="52.5"/>
  <line class="cls-6" x1="137.1" x2="140" y1="39" y2="39.5"/>
  <line class="cls-6" x1="87.8" x2="85.7" y1="33.9" y2="33.4"/>
  <line class="cls-6" x1="91.3" x2="89.2" y1="23.1" y2="21.1"/>
  <line class="cls-6" x1="100.1" x2="98.3" y1="10.9" y2="8.1"/>
  <line class="cls-6" x1="66.2" x2="68.9" y1="50.5" y2="48.1"/>
  <line class="cls-6" x1="62.2" x2="65.1" y1="44.9" y2="40"/>
  <line class="cls-6" x1="54.6" x2="56.6" y1="32.6" y2="29.2"/>
  <line class="cls-6" x1="37.4" x2="37.4" y1="25.5" y2="21.4"/>
  <line class="cls-6" x1="40.6" x2="41.5" y1="25.6" y2="22.7"/>
  <line class="cls-6" x1="20.8" x2="18.4" y1="31.4" y2="28.4"/>
  <line class="cls-6" x1="13.6" x2="9.5" y1="42" y2="39.8"/>
  <line class="cls-6" x1="14.1" x2="9.2" y1="54.9" y2="51.9"/>
  <line class="cls-6" x1="14.4" x2="11.4" y1="67.6" y2="68.1"/>
  <line class="cls-6" x1="21.6" x2="18.5" y1="80.5" y2="82.7"/>
  <line class="cls-6" x1="35.9" x2="33" y1="93.4" y2="97.1"/>
  <line class="cls-6" x1="40.6" x2="39.6" y1="95.8" y2="100"/>
  <line class="cls-6" x1="50.6" x2="45.6" y1="116.1" y2="113.9"/>
  <line class="cls-6" x1="53.5" x2="48.1" y1="123.1" y2="122.6"/>
  <line class="cls-6" x1="81.9" x2="82.6" y1="56.1" y2="60.5"/>
  <line class="cls-6" x1="75.5" x2="77" y1="58.5" y2="62.5"/>
  <path class="cls-0" d="m93.4 24.9-1.2-1.4"/>
  <path class="cls-6" d="m128.4 12.4 0.2-0.3"/>
  <line class="cls-0" x1="61.3" x2="62.5" y1="45.2" y2="43.5"/>
  <path class="cls-0" d="m52.1 116.7-0.7-0.6"/>
  <path class="cls-0" d="m102.8 61-0.4 0.4"/>
  <line class="cls-0" x1="94.4" x2="119.8" y1="139" y2="139.1"/>
  <line class="cls-0" x1="38.1" x2="55.9" y1="138.4" y2="138.4"/>
  <line class="cls-0" x1="93.4" x2="111.1" y1="141.2" y2="141.2"/>
  <line class="cls-0" x1="43.9" x2="57.8" y1="142.2" y2="142.2"/>
  <line class="cls-0" x1="33.4" x2="42.4" y1="142.2" y2="142.2"/>
  <line class="cls-0" x1="24.3" x2="31.5" y1="142.2" y2="142.2"/>
  <line class="cls-0" x1="13.3" x2="19.2" y1="142.2" y2="142.2"/>
  <line class="cls-0" x1="40.2" x2="67.3" y1="145.2" y2="145.1"/>
  <line class="cls-0" x1="71.6" x2="111.4" y1="145.1" y2="145.1"/>
  <line class="cls-0" x1="93.4" x2="131.6" y1="142.1" y2="142.2"/>
  <line class="cls-0" x1="137.6" x2="140" y1="142.2" y2="142.2"/>
  <line class="cls-0" x1="65.1" x2="84.5" y1="148.4" y2="148.4"/>
  <circle class="cls-5" cx="22.3" cy="66" r="1.1"/>
  <circle class="cls-5" cx="19.4" cy="41.8" r=".8"/>
  <circle class="cls-5" cx="35.5" cy="32" r=".8"/>
  <circle class="cls-5" cx="47.2" cy="37" r="1.1"/>
  <circle class="cls-5" cx="57" cy="49.2" r=".8"/>
  <circle class="cls-5" cx="63.3" cy="65.4" r=".6"/>
  <circle class="cls-5" cx="25.5" cy="76.3" r=".7"/>
  <circle class="cls-5" cx="37.7" cy="83.6" r=".6"/>
  <circle class="cls-5" cx="46.1" cy="89" r=".9"/>
  <circle class="cls-5" cx="57.7" cy="93.6" r=".8"/>
  <circle class="cls-5" cx="61" cy="100.5" r="1.1"/>
  <circle class="cls-5" cx="55.5" cy="107.4" r=".6"/>
  <circle class="cls-5" cx="62.4" cy="131.9" r=".8"/>
  <circle class="cls-5" cx="73.8" cy="133.5" r="1.1"/>
  <circle class="cls-5" cx="86.1" cy="137.2" r=".6"/>
  <circle class="cls-5" cx="71.5" cy="71.9" r=".8"/>
  <circle class="cls-5" cx="95.5" cy="66.7" r="1.1"/>
  <circle class="cls-5" cx="109" cy="68" r=".8"/>
  <circle class="cls-5" cx="117.3" cy="81.1" r=".6"/>
  <circle class="cls-5" cx="114.9" cy="103.5" r=".7"/>
  <circle class="cls-5" cx="93.7" cy="46.7" r=".8"/>
  <circle class="cls-5" cx="98.1" cy="53.5" r=".6"/>
  <circle class="cls-5" cx="96.9" cy="27.6" r=".8"/>
  <circle class="cls-5" cx="100.7" cy="17.5" r=".8"/>
  <circle class="cls-5" cx="108.4" cy="14.1" r=".9"/>
  <circle class="cls-5" cx="115.6" cy="10" r=".8"/>
  <circle class="cls-5" cx="131.4" cy="20.5" r=".8"/>
  <circle class="cls-5" cx="131.3" cy="32.1" r="1.1"/>
  <circle class="cls-5" cx="130.2" cy="44.1" r=".8"/>
</svg>