<svg xmlns="http://www.w3.org/2000/svg" viewBox="0 0 120 120">
<!-- SVG created with Arrow, by QuiverAI (https://quiver.ai) -->
  <style type="text/css">.cls-0 {fill:#D1C6A6;}
.cls-1 {fill:#F1E9D1;}
.cls-2 {fill:none;stroke:#726041;stroke-width:0.75;stroke-linecap:round;stroke-linejoin:round;stroke-miterlimit:10;}
.cls-3 {fill:none;stroke:#726041;stroke-width:0.5;stroke-linecap:round;stroke-linejoin:round;stroke-miterlimit:10;}
.cls-4 {fill:#BFB596;}
.cls-5 {fill:none;stroke:#726041;stroke-width:0.25;stroke-linecap:round;stroke-linejoin:round;stroke-miterlimit:10;}</style>
  <path d="m104.6 102.7 1.6 0.2-1.6-0.2c-0.1 0.1 0 0 0 0zm1 2.7 1.4 0.2c0.2-0.2-0.7-0.3-1.4-0.2z" fill="#726041"/>
  <path class="cls-0" d="m108.8 76.5 1.9-4.1 0.5-1 0.4-4.4-0.4-2.7 1-4.9 0.1-1.9 0.1-2.3-0.2-2.7-1.8-4.5-0.7-4.4-0.8-2.6-0.9-2.5-1.4-2.9-2.2-2.7-3.5-6-1.5-1.7-2.2-2.9-3.3-1.7-3.2-3.1-2.7-1.8-3.5-1.4-3.1-0.5-2.4-1-1.4-0.5-0.7-0.7-1.7-0.1-3.1-0.2-3.6-0.4-2.3-0.3-1.8 0.4-2.7 1.5-0.9-2.1-1.9-0.3-2.4 1.7-2.6-1.4-2.8 1.1-3-1-2.1-0.3-4.1 1.1-3.1 1.8-2.7 0.6-2.6 0.8-3.8 1.9-1.7 1.2-2.9 2.3-2.5 2.8-3.9 4.1-2.2 2.3-1.6 3.3-1.1 3.5-2.2 3.2-1.2 3.4-0.8 4.4-0.3 4.5-0.8 4.1-0.9 3.6 1.7 5.9 0.2 3.6 0.3 4.8 2.8 5.1 1.6 5 0.9 3.8 4.3 3.9 1.8 2.5 0.9 2.2 3 1.2 4.1 3.1 3.2 1.7 4.2 2.4 4.7 0.9 5.4 0.8 5.5 0.5 4.7 1.1 4.5-0.2 5.5-0.2 4.4-0.9 4-1.2 4.2-0.7 4.8-0.4 3.8-1.6 4.4-0.8 4.3-3 3.4-3 2.5-3.1 4.4-6.5 1.2-4.1z"/>
  <path class="cls-1" d="m53.1 17.8c1.3 0 2.8 0.5 2 0.8-1.6 0.6-1.1 1.2-0.2 0.4s1.5-0.7 0 0.7-2.8 3.2-1.4 2.2 1.2-0.5 0.2 0.6-1.9 2.8-0.7 1.6 1.3-0.9 0.1 0.8-2.4 3.6-0.9 2 0.6 0.1-0.7 1.3-2.9 4.4-1.4 1.8 2.6-3.3 1.4-0.9-4.1 6.9-2.9 5.6 3.3-5.6 2.3-3.1-3.6 7.5-2.9 6.6 3.7-7.5 2.6-4.5-2.4 8.5-1.3 5.5 3.8-9.9 3.7-8.1-1.1 3.2-0.3 2.4-0.7 2.7-0.3 2.7 0.1 1.5 0.5 0.5 0.9-2.6 0.5-0.5c-0.7 3.2-0.8 6.9-1 8.2s0.9 5.6 2.2 6.8 1.1 1.6 0 3.2-0.5 2.5 0.1 1.2 2.4-3.2 1.9-1.9-0.7 4.6 0 5.3 0-1.3 0-3.4 0.7-3.7 1-3.4 1 0.5 0.5-0.6-1.5-2.5-0.7-2.4 1.8 0.6 1.1-0.6-2.6-3.1-1.8-2.7 2 1.8 1.6 0-1.2-5.2 0-7.8c0.6-1.3 0.4-1.6 1.2-2.2 1.3-0.9 1.5-3.3 0.4-2.8s-1.3 0.5-0.5-0.4-0.2-1.5-0.9-1-1.3 0.2-0.2-1.7 0-2.4 1.6-5.6c1.2-2.4-0.2-1.6-1.3-0.5s-3.1-0.3-2.6-2-0.4-1-0.9-0.7 0.3-2.2 1.5-2.6-1.2-1.2-3.5-0.8zm3.3 41.8c-0.3 0.9-1.3 3.3-1 1.6s0.1-3.6-0.5-2.5-2.2 1.5-1.9 2.7 0.4 1 0.5 0.7-0.1 1.8 0.4 1.9 0.7-0.9 0.5 0.6 0 2.3 1.2 2.3 2.9-4.3 2.2-3.5-2.4 1.7-1.4 0.3 2.3-2.1 1.4-3 0.1 1.9-0.9-0.1c0 0-0.2-1.9-0.5-1zm-1.2 7.5c-0.5 0.3 0.3 2.9 0.9 2.9s1-1.4 0.8-0.3 0.5 4.7 0.9 4.3-0.6-4.1 0.1-3.6 0.6-3.2 0-2.8-2.2-0.8-2.7-0.5zm2.6 10.8c-0.5 1.2-2.2 3.5-1.2 4.2s2.1-1.5 2.1-1.5-0.4-3.9-0.9-2.7zm-0.7 10.5c0.4 1 2.1 0.8 1.8 0s-2.2-1-1.8 0zm34.2-64.3c0.8 1.1 3.1 2.5 1.2 1.8s-0.6 0.5 0.6 1.2 1.5 0.5 2.3 2 3.2 1.6 2.6 2.6 0.9 1.7 0.7 1.2-0.8 0.7 0 0.2-0.1 1.7 0.7 2.1 2 3.5 1.2 2.4-1.2 0.3 0 1.5 1.9 1.9 2.1 3.5 1.2 0.5 2 1.8-0.5 3.2 0.1 7.2 1.2 5.5 0.4 4-0.3 0.5 0 1.3-0.5-1.3-0.5 0-0.1 4.2 0.8 3.2 1.5-0.6 1.6 0.5 0.9 0.3 1.2 0.8 0.6-1.4 0.1-2 0.3-3-0.5-3-1.3-1.2-1-2-0.4-2-0.3-2.8 0.8-2.9 0.8-2.2 0.2 4.7 0.6 3.5 0.3-6.4 1.4-4.8 2.7 5.5 2.3 3.1-2.4-3.8-2.3-6.1-1.3-4.7-1.8-4.5-1.7 0-0.7-1.2 0-3-1.3-3.5-3-3.3-4-5-1.9-4-2.4-3.5-1.6-1.2 0-0.8-1.8-2.2-2.6-3.5-3.5-2-4.9-3.5-2.6-3-3.6-3-3.7-1.2-3.6-2.2-2.9-1-4.4-1.4-4.7 0.1-6.4 0.1-3.8 1-2.3 1.3 5.2-0.3 6.5 0 2.7 3 4.2 3.5 4 1.2 5.1 2.2 3 2.8 4.1 4zm3.6 36.3c-0.3 2.2-0.5 2.1 0.5 3.3s2.3-1.3 1.2-1.3c-0.5 0-0.4-2.9-0.9-1.8s-0.5-0.5-0.8-0.2zm4.3-26.7c-0.3 1.2 0.2 1.9 0.2 1.4s-0.2-1.4-0.2-1.4zm4.7 47.7c-0.7-0.4-2.1 5.2-1.8 7.2s0.8-3.2 1.8-5.5 0.7-1.4 0-1.7zm-4.5 9.7s0.5 0.3 1.7-1.1 1-4.9 0.6-4.4-1.1 2.3-1.1 3.5l-1.2 2zm-64-75.4-4.2 1.7-3.3 2.6-2.8 1.5-1.9 2.6 0.9 2.1 2.9-0.8 3.2-3.1 3.4-2.6 4-1.3 4.5-1.8s6.8-1 4-1.2-10.7 0.3-10.7 0.3z"/>
  <path class="cls-1" d="m39.9 13.7-2.5 1.7 2.1 0.3 2.4-1zm8.8-1.6 1.3 1.5 1.6-0.4 1.9-1.6 0.6-0.6-1.5-0.5-1.7 1zm9.3-1.7-0.9 1.1 1.4 2.6h2.2l0.8-1.6-0.8-2-1.2-0.4zm5.9 1.7-1.3 3 3.6-2.6-1-1.2zm2.8-0.8-0.5 1.2 1.4 1.4 1.6 0.7 1.2-0.5 0.5-2.2-1.7-0.6zm8.7 0.2-1 1.3 3.7-0.3-0.5-0.9zm-53.9 82.9 1.4 2.2 1.7 0.8-1.1-3-1.9-0.8zm6.6-0.8 0.8 2.5 1.5 0.8v-2.5l-1.2-1.3zm11.8 4v1.4l2.2 0.9 0.8-0.9-0.3-2.4h-1.5zm3.5 1.5s1.8 4 3 4.9 2.7 1.5 2.2 0.9-3-4.9-3.5-5-1.7-0.8-1.7-0.8zm11.7 7.3 0.4 1.2 2.4 0.3v-0.7zm4.3 1.2 1.2 0.3 1.6-0.7-0.5-0.7zm4.7-0.7-0.7 1h1.7l1.4-0.7-1-0.7zm5-0.4-0.7 1.4h2l1-1.4-1-0.1zm4.3-0.6-0.8 1h1.5l0.4-1zm2.5-6.5c0 1 0.2 3 0.7 2.7s1.5-2.2 1.5-3-1.2-1-2.2 0.3zm3.5 0 0.5 2 1.5-1.3v-1zm2 4.9v1.1l2.2-0.3v-1.2zm10-7.7h1.2l1 0.8 0.5-0.8-0.7-2.2-1.3-1.3zm8-3 0.5 1.5 1.2-1-0.4-1.6z"/>
  <path class="cls-1" d="m79.9 62.1c-0.5 2 0.2 3.5 0.7 4s1.1-0.5 0.6-2-0.8-0.5-1.3-2zm-1.2 1.4c-0.7 1.6 0.9 3.4 1.5 3.7s0.4-0.8-0.1-1.3-1.4-2.4-1.4-2.4zm1.2 17.1c-0.7 0-1.9 2.5-1.3 2.3s2.3-2.3 1.3-2.3zm0.5 1.4c-0.5 0.4-2 1.6-1.3 2.4 0 0 1.3-1.5 1.5-1.3s0.3-1.5-0.2-1.1zm-3.4-39.4c-0.4 1.5-1.4 3.5-0.6 4.9 0 0 0.1-1.6 0.7-2.4s0.1-3-0.1-2.5zm1 2.5c-0.5 0.5-1.4 2.8-1 3.5l0.7-2s-0.5 3.3-0.1 3.5 1.5-1.1 1.5-1.5-0.1-1.7-0.7-2l0.2-1.5h-0.6zm14.1-2.7c0 1 0 2 0.6 2.3s-0.6-3.3-0.6-2.3zm0.9 3.6c-0.1 1.1 1.6 2.6 1.1 3.2s1.1-0.6 1-1.2-2-2.9-2.1-2zm5.9 5.6c0 0.8 0.3 1.8 0.8 1.3s-0.8-2.2-0.8-1.3zm4.5 2.1-0.3 0.7 0.3-0.3zm-18.2-22.6c0.7 1.5 1.4 1.8 2.3 1.6s2.2 0.2 1.9-0.3-1.7-1-2.4-0.8-1.8-0.5-1.8-0.5z"/>
  <path class="cls-1" d="m70.1 25.4c1 1 2.9 2.7 3.1 4.7s1.9 2 1.2 0-2.5-5-4.3-4.7zm-0.9 2c-0.5 0.7-0.8 1.7-0.3 1.6s0.8-2 0.3-1.6zm1.3 1.2c-0.4 0.8-1.3 3.1-0.6 2s1.3-2 1-0.9-0.4 2.5 0 1.4-0.2 3.8 0.2 3 0.5-3 0.8-2.5-0.3 2.8 0.2 2.3 0.6 1.3 0.6 2 0.9-1.5 0.7 0 2.1 2.2 3 2.8 2 0.9 1.2-0.3-3.2-2-2.1-2.2 1.6-1.3 0.9-1.6-3.2-0.7-3.3-2.7-2-4.3-2.6-3.3z"/>
  <path class="cls-4" d="m26.7 25.6c-0.6 2-2.2 3.8-3.1 4s-1.2 1.6-1.4 2.1-1.1 1.9-1.7 2.4-1.6 3-1 2.4-1.1 3.1-1.4 3.5-2.2 2.2-2.4 2.7 0.3 3.2-0.3 5.2-1.8 4.2-1 3.6 0.1 1.9 0 1.6-0.3 4.4-0.5 3.5-1.3 2.1-0.8 4 1.1 3.4 0.8 6 0.3 1.5 0.3-0.7 0.4 1 0 2.8-0.6 4.5 0.5 5.2 1.9 9.2 3 9.5 1.9 2.5 0.9 3.1l-3-2.4-1.5-1.5-1.2-3.9-2.8-4.5-0.2-5.1-0.4-4.7-1-4.7 0.1-3.8 1-4.5 0.5-5.8 2-5 2-3.7 1.3-4 3-4.3 1.7-2 2.3 0.3zm-3.6 47.1c-0.7 0.4-0.5 1.7 0 1.3s0.3-1.5 0-1.3zm-5 10.7c0.9 2.7 5.5 8.2 5.6 9.5l0.4 0.2s0.1 0.5-1-0.5-1.9-1.7-1.9-1 2.9 3.9 3.3 5 0.9 1.3 2.2 1.8 2 0.7 1-0.5-3.5-4.3-3.5-4.8 1.7 1 2.4 1.5 2-0.2 1.5-1.5-2.7-6-3.2-5.5-0.8-1.2-0.4-2-1.1-4.5-1.4-6.1 0.6-1.9 0.3-3.4-1.8-5.2-1-6.1-0.8-0.9-1-3.1-0.5-4.4 0-5.2 1.6-2.6 1.6-4.6 0.2-3.7 0.4-3.7-0.2-2 0.7-3 2.3-2.8 1.5-5 2.3-6.5 2.3-7.8 1.2-3.7 1.5-2.9 2.7-1.6 2.7-2.8 1.4-2.5 1-3 2.6-4.5 3.5-5.3 2.9-1.2 4.1-2.1 1.7-2 1.9-1.4 1.5-1 2-0.7 4-3 4.5-2.8-1.2-1.7-2.2-1.2-5.5 0.7-7 1.2-3.8 3-5 2.8-3 1.7-4.3 3-3.9 3.7-3.9 3.2m7.4 30c-0.5 0.4 0 1.5 0.3 0.8s0-1-0.3-0.8zm2.8-21.2c-0.9 1.3-3.9 3.8-3.5 3.7s2.2-1.4 3-2.2 0.8-2 0.5-1.5zm0.5-4.5c-0.4 0.8-2 3.8-1.8 4.2l1.8-3.4v-0.8zm8.2-3.7c-0.5 0.9-2.4 4.4-2 3.8s0.8-3.9 2.5-4.8 1.8 0.2 3.1-2.1-1.1 1.3-2.1 1.3-1 0.9-1.5 1.8zm-5.5 10.5c-0.5 1.2-1 6.4-1.4 7.9s-1.7 3.5-0.8 2.5 1.6-2.7 1.2-2.2 0.4-0.8 0.3-0.5 0.6-4.3 0.7-5.3 1.1-3.1 0-2.4zm-5 20.2c0-1.8 1.6-4 1.3-3.5s-1.3-1.5-0.8-2.7-0.7 1.4-0.5 2.9 0 3.3 0 3.3 1 4.5 0.5 4.7-1.7 1.5-1.6 0.8 1.1-2 0.5-2-0.4-2.8 0-2.8 0.6-0.7 0.6-0.7zm0.3 21.2c-0.8 1.5-1.3 2.3-0.5 4.5s0.5-1.5 1-2 0.2-3.6-0.5-2.5z"/>
  <path class="cls-1" d="m33.1 64.4c-0.5 2 0.1 12.2 1.3 13.7s-0.5-2.5 0.7-3.5l-1.5-6.5-0.5-3.7z"/>
  <path class="cls-4" d="m9 103.1c-0.9 0.9 4.9 0 7.7 0s-3 0.3-2.9 0.8 5.1 0 4.3 0.5 6.3-0.4 3.6 0.2-1.6 0.6 1.5 0.4-2.6 0.5-0.7 0.6 7.2 0 4.7 0.3 8 0.2 7.3 0.5-13.3 0.1-11 0.5 12.6 0.7 11.6 0.7-11.7 0.8-11.5 1 19.8 0.8 18.8 1-7.7 1.3-11.3 1-12.4-1.2-11.6-0.2c0 0 10 0.3 11.6 0.7s17.8 0.5 17.5 0.3 8.5 0.5 6.6 2.7l-3.1-0.1c0-0.4-7.9 0-7.9-0.3s0.9-0.3 1.9-0.3l6 0.1s10.8-0.3 8.3 0.1 19.3-0.5 21.2-0.5 4-0.5 5.5-0.2 2.8-0.3 2.9-0.2l-8.1 0.2-1.5-0.5s-13 0.2-11.5-0.3 29.2-1.5 29.5-1.2 3.2-0.5 0.8-0.5-16.6 0.7-16.3 1 9.2-1.5 16.7-2 9.6-0.3 9.5-0.7-2.6-0.3-3.2-0.1-15.5 0.6-15 0.4 20.7-1.5 20.6-1.8-1.9-0.3-5.1-0.6-15.3 0-14.5-0.1 15.7-0.6 17.8-0.5-1.1-0.5-1.1-0.8 8.1-0.3 8.3-0.5-0.2-0.4-2-0.4-7.5 0.4-6.3 0 3-0.7 0.9-0.9-5.1-0.8-6.3-0.7 2.5-0.3 2.2-0.6-11.3-1-11-1.4-4.5 0.9-2.8 0.9 2.8 0.3 4.3 0.3 5.7 0.5 5 0.5-6.3 0-6 0.3 5 0.4 4.2 0.7-5.4 0.2-5.4 0.5-0.3 0.7-3.6 0.7-6.7 0.4-5 0.5-1.2-0.2-2.2 0.6-5.8 1.4-6.8 1.4-3.4 0.3-2.4 0.5-9.6 1.1-10.3 0.8-8.7 0.2-7 0.2-7.5 0-6 0.4-6.5 0.6-7.2 0.4-18.6 0-19.6-0.4-11.1-0.4-15 0.1c-1.6 0.2-1.2-0.4 0-0.4s10.1-0.8 15.3-0.3c1 0.1-4.4-0.8-5.7-1.2s4.9 0.2-0.8-0.3-13-0.2-13.3-0.2-1.9 0.9-1.8 0.4-1.3 0-1.1-0.6c0.2-0.1 10.9-1.8 14.2-1.9h2.5v-0.2s-9 1.5-8.4 1.5 11.7 0.6 11.4 0.2-7-1-8-0.5 5.2-1.2 8.6-1.2 6.2-0.8 5.9-1.2-8 0.4-7.4-0.3 6.9-0.3 6.9-0.5-7.5 0.6-9.4 0 1.6-0.7 1.6-0.7 9.6-0.5 9.3-0.3-2.2 0.2-1.7 0.3 3.9-0.3 3.9-0.3l1 0.7 3.5 1.9 2.1 0.6s3.2 0.8 2.2 0.8-5.3-1.5-6.7-2-3.3-1-2.8-1.3-3.3-0.9-3.3-0.9-7.5 0-6.9-0.6 7.2-0.2 8.5 0-2.1 0.5-1.5 0.5 3.2-0.5 3.2-0.5l2 1 3.2 1.8 3.5 1.5 2.8 0.5 4.3 0.7 5.2 1 4.2 0.3 4.5 0.5 3.3-0.3 5.2-0.4 3.3-0.7 3.5-0.9 3-1 3-0.2 2.7-0.4 2.5-0.9 2.6-0.5 2.5-1 0.7 0.5-2 1.3-2.4 1.2-3.4 1-4 0.9-3.5 0.4-4 0.5-4.5 0.5h-4.7l-4 0.2-4-0.5zm15.6 8.5c0 0.8 4.5 0.1 6.5 0.4s19.1-0.6 17.8-0.4-0.2 0-2.2 0-17-0.5-20.3-0.2c-1.7 0-1.8 0.2-1.8 0.2zm32.3 3.5c-0.3 0.6 2.3 0.5 5.2 0.5l3.3-0.4 3-0.1c-0.5-0.5-7.9 0.3-10.8-0.1l-0.7 0.1zm55.6-13.5c-0.8 0 0.4 0.3 3.4 0.3l3.5-0.2s-2.4-0.5-4.7-0.3l-2.2 0.2z"/>
  <path class="cls-2" d="m55.9 17.6c-1.2-1-2.5-2-5.3-1s-8.7 0.8-13.2 5.3c-3.7 1.7-4.5 5.5-6.9 7.6s-3.5 4.1-4.4 7.4-2.2 5.7-3.1 7.1 0.4 3.4-1 6.4 0.9 6.5-1.9 11.7c0 5.6 1.8 10.4 1.5 15.1-0.2 3.7 4.5 11.7 6 15.9s9 10.9 11 11.5 2.5-0.7 4.3-1.5c1.8 1.9 5.2 3 9.3 2.8 1.9 1.7 5.9 2 8.3 1.7 3.2-0.4 5.6-2.5 6.7-5.2 2.2-5.5 1.9-20.7 2.3-27 0.9-12-0.4-31.4-2.9-39.4s-2.9-11.9-3.2-13.6-2.5-5.5-3.5-5.8m3.5-0.5c3 0.5 5.1 1.8 7 5 1.2 2 5.2 5 7.2 9.3 0 2.2-3 3.8-2.2 5.6s3.7 3.2 4 7.2c0.1 2.7 0.5 3.4 1.7 5.2m-9.5-32.8c4.5-1.4 7 0.3 8.8 0.9 2.8 1 6.2 1.1 11 5.6 2.2 2.3 4.7 3 6.5 6.5 2.2 1.8 2.2 5.8 3.7 7.9l1.8 2.6c1.3 3.8 2.5 5 2.7 10.8 0.1 3.2 2.5 6 2 10s-1 5.2-0.5 9.7-0.4 5.8-1.4 7.8-0.8 3.2-1.6 4.7-1.7 6.5-2.7 7.8l-1.8 2.7m-48.5-81c-2.2-1-5-2-7.5-1.4s-4.1 1.7-5.2 2.5-4.5 0.5-6.7 2.5c-3 1.4-4.5 2.7-5.1 3.2s-3.2 1.3-4.5 4.2l-3.6 4c-1.4 0.5-1.9 1.8-2.8 2.5s-0.8 3-1.3 4.3l-1 2.7c-1 1.5-2.5 3-3 5s-1.4 4.8-1.5 6.8c0 3 0.2 4 2.5 6.5-0.3 2.2-0.8 4.2-0.5 5.5s1.2 4.5 0.7 6.5 0 5.5 1.3 8 1.6 7.2 3.2 9c0.5 3 4 7.2 5 9.2s4.3 5.3 6.3 6.5"/>
  <path class="cls-3" d="m56.4 11.6c0.7-1.2 3.2-3.2 5-0.7l0.5 1.5m2.7-1.7 1.6-0.1 2.2 0.3h1m2.5 0.7c2-0.2 4.2-0.2 6 0.3 1.8 0 4 1.3 5.3 1.5l1.7 0.3 1.8 0.7m12.4 8.7 1.5 2.6 1.5 2.5 2.3 4.2 2.1 2.6 1.4 2.6 1.2 3.3c1 1.8 0.8 4.7 1.1 6.7l1.5 4 0.9 3-0.1 4.3c-0.4 3-1.5 4.7-0.8 7.7l-0.1 3-1.2 3.1-1 2.7c-1 2.2-0.8 5.2-1.8 7.2l-0.7 2.8-4.3 6m-51.7-76c-2.5-0.8-5-1.3-7.3-0.8-2.3 0.1-5.7 0.8-8.2 1.8s-5.3 3.3-7.3 5.3l-3.6 2.7-1.9 2.2"/>
  <path class="cls-2" d="m56.6 17.6c1.6-2.4 3.8-1.2 5 0m-6.5-1.5c1 0 0.8-0.7-0.2-2.4m1.5 2c0.8 0 2.3-1 0.5-3.3m0.7 3.2c1.3 0.1 2-0.5 0.8-2.7m0.5 2.5c0.8 0.2 2.7 0 1.3-2.7m0.2 3c0.5 0.7 2.5 0.7 1.7-2.5m-0.4 2.7c1.2 0.7 2.8 0.2 1.5-2.8"/>
  <path class="cls-3" d="m53.1 10.7c1.6-0.3 3.3 0.4 4.5 2.2m5.8-1.3c-1 1.5-1.3 4-0.3 3s3-2.2 6-3m4.1 1.3c1.3-0.8 3.2-2.5 3.9-1m-27.7 3.5 2.2 1.2m46.5 6.3-1.4-0.5m2.4 73.2 1.3-1.2"/>
  <path class="cls-2" d="m23.4 46.9c-0.5-1.8 1.5-2.8 1.3 0.7-0.1 1.8-2.2 3.5-1.3 3.1m-2.5 13.9c1.5-1.5 2.5 2.3 0.6 4m1.1 11.8c2-0.8 2 5.2 1.3 5m11.2-36.5c1.4-2.3 3.6-2 3.5 1.5-0.1 1.3-2.9 4-3.7 2.2m-1 14c1.7-2.2 3.5-0.6 3.1 2.4-0.1 1-2.3 2.6-3.1 0.9m1.7 13.7c0.8-2.7 3.5-1.5 3.5 0.8s-2.7 3.2-3.4 1m4.2 12c0.5-1.8 3-0.8 2.7 1.7-0.2 2.5-3.1 1-2.7-1.4m16.6-50.1c0.1-1.7 2.9-2.9 3.4 0s-2.8 5.8-3.4 0zm0.1 18.5c0.3-2.5 3.3-2.4 3.9 0.3 0.2 2.5-1.5 4.7-3.9 1v-1.3zm0.5 18.3c0.5-2.3 2.6-2.3 3.5 0s-2 5-3.5 1.2v-1.2zm1 14c0.6-1.8 2.8-1.5 2.6 1s-2.8 2.2-2.6-0.8v-0.2zm20.5-46c0.6-2.3 2.5-3 3.9-0.8 1.4 2.1 0 5.3-3 2.3l-0.4-1.3m-4.2-18.6c2-0.9 4.2 2.4 2.7 4.1s-4-3-2.2-4l-0.5-0.1zm6 34.6c0.7-1 3.2-1.7 3.5 1.8 0 2.7-3.3 3-3.5 0v-1.8zm-1.5 18.5c0.5-2.7 3.5-3.4 3.7-0.4 0.3 3-3.5 4.7-3.7 0.7v-0.3zm-3.5 12.8c0.5-2 3.1-3.3 3.5 0.2 0 3.3-3.8 3.5-3.5 0v-0.2zm19-50.3c0.5-2.2 2.7-0.9 3 1.5 0.2 2.4-2.3 1.5-3.3-1.2l0.3-0.3zm1.7 16.5c0.6-2.5 2.6-2.5 2.8 1s-2.7 2.9-2.8-0.7v-0.3zm-1.2 15c0.5-2 2.2-2.5 2.8 1-0.5 3.8-3.3 3-2.8-1.2v0.2zm-5 14.5c0.2-2.5 2.8-4.5 3.2-1 0.3 3.5-3.5 4.5-3.2 1zm1-62c1.5 1 2 4 0.5 3.5-3-0.7-4.4-5-1.3-4l0.8 0.5zm10.8 5.6c1.9-0.1 3.4 4.7 1.4 3.9-2-0.7-2-3.7-1.4-3.7v-0.2zm4.4 16.4c2 0 2.5 6 1 5.5-2.5-1.2-2.2-5-1-5v-0.5zm4.8 12.8c0.7 2.2 0 5.7-0.8 3.5-0.6-1.5 0.5-5.3 0.8-3.5zm0.2-15.5c1.5 1.1 1.8 4.7 0.5 4.2-1.4-0.5-1.5-4.5-0.5-4v-0.2zm-16.7-26.5c2 0 3.3 3.5 1.8 3-1.5-0.3-3.1-3.3-1.8-2.8v-0.2zm-15.8-5.2c1.8-0.6 4.3 2.5 3 2.4-2.7 0.5-3.7-2-3-2.2v-0.2zm-10.7 1.4c1.3-1 3.8 0.8 3 2.3-0.8 1-3.3-0.3-3-1.8v-0.5zm-11.8-1.4c0.8-1.8 3.3-0.8 3.3 0.7-1 2.5-3.3 2.2-3.3-0.2v-0.5zm-10.9 0.7c1.4-1.9 4-1.3 3.4 0-1.2 2.2-3.4 2.5-3.4 0.5v-0.5zm-9.6-0.8c2-2 4.8-1.1 3.4 0.1-1.4 1.5-3.8 1.9-3.4 0.2v-0.3z"/>
  <path class="cls-3" d="m51.6 10.6c-0.7 1 2.1 2.5 2.8 3.5m2.7-3.2c0.5 1.7 1.5 3.8 1.3 4.7m0.2-3.7c0 1.7 0.5 2.8 0.8 3.8m1.3-3.6c-0.5 1.8-0.3 3.1 0.4 3.5m5.3-4c1.7 1.8 3.3 3.8 4 4m-2-3.7c0.7 1.5 1 3 1.5 3.5m1.7-4.3c-1 1.8-1.5 4-1.2 4.3m14.5-1c0.8 1.3 3.7 3 3.7 1.2m8.8 7.8c-0.2 1 2 2.7 2.5 1.5m6.7 10.7c-0.2 2 2.3 4.8 2.3 2.5m-5 4.5c0.8 0.8 2 3 2.3 1.8m0 38.2c-1.1 1.8-0.8 4.5 1.4 1m-52.7 22.8c0 2 2.7 1.7 3 1.2m3.2-0.4c0.6 1.2 2.5 0.4 2.3-0.3m2-0.5c0.7 1 3.5 1.2 3 0m1.7 0c0.8 0.8 3 0 3.3-0.5"/>
  <path class="cls-2" d="m49.1 15.4c-1 2.5-1.6 6.2-1.9 6.5m-2.6-6.3c0.5 2.3 2 5 2 6m-9.6-7.2c0 2.7 0.6 6 0.6 6.5m-3.6-4.8c0.9 2 3 4.3 3 4.6m-3.3-0.8c1.2 0.8 2.7 1.2 2.7 1.2m6.7-2.2c1.5 1.7 3 2.7 3 3m1-3.2c-0.1 1.9 0.5 2.5 0.8 2.9m-24.4-7.6c1.1 2.6 2.4 4.9 2.6 4.4l1-0.5 0.1-4c-0.6 2.7-0.6 5.2-1.1 4.7m-3.5-0.9c2 0.9 3.1 2 2.5 2-2-0.1-4.4 0.2-3.9 0.5 1.9-0.3 3.9-0.3 3.5 0m-5.1 2.4 2 2 0.9-1-0.1-2.5 1.5 5.3 0.5-4.3 0.1 3.3h1.1l-0.2 0.7m-10.4-1.4c0.4 2.2 1.4 3.7 1.6 3.2 0-2.3 0.3-4.8 0.4-4 0 2.7 0 3.7 0.4 3.7l0.7-0.2m-4.7 1.7c1.7 0.3 2.2 0.8 2 1.1-2 0.9-3.7 2.2-3.2 1.9 2.2-1.2 3.2-1.7 3.2-1.4m-2.7 3.2 1.4 2-0.5 1.5-2.5 0.1 4 0.9-0.5-1.3 1 1.5 0.5-1.9-0.7-0.7c0-2.1 0.2-3.4 0.2-2.4 0 2 0.5 3 0.8 3l1-0.6m-11.2 4.5c2 0.9 3.7 2.6 3.4 2.4-1.7 0.2-2.5 0.7-2 0.7 1.8 0 2.3 0.3 2 0.8-1.7 0.7-3.5 3.3-3 3 1.5-1.5 2.8-2.7 2.8-2.3m-1.3-7.2 1.5 3.7 1-0.7m-2 8.8 0.8 1.4-0.3 2 2.3 1.3-0.5-1.3m-6.8 3.9c2.5 1.1 4 1.6 3.3 1.2-1.3-1.8-2.3-4.1-1.8-3.6l2 2.5v-0.5l0.5-0.2m-3.9 5.5c1.4-1.3 3.2-2.2 3.2-1.8-1 1.8-1.3 4.5-1 3.9 1-2.4 1.7-2.9 1.7-3.4l-0.2-2 0.2-0.2m0 9.2 1.5 1 0.3 3.5-2.9-2.4c0.9 1.4 2.9 2.2 2.4 2.4-2-0.7-3.2-1.4-2.5-0.7l2.7 1.3v0.9c-1 1-2 2.5-1.2 1.8l1.2-1.3-0.2 3.8 0.7-3.3 0.6 0.5m-0.1 7.8 3.3 2 0.2 1.2c-1.5 0.5-3.7 0.8-3 1 1.6 0 2.8-0.7 3.3-0.5l-0.5-1.7m-0.5 5.7 1.2-3 0.5 0.5c0 3.5 0.3 5.3 0.4 3.5l0.1-3.2 4 3.2m-2 4.1c2 0.2 4-0.3 3.8 0.2-1.8 1.2-3.3 3-2.5 2.5l2.7-1.8 0.5 0.3c-1 1.7-1.7 3.7-1.2 3l1.2-3 1.5 3.2-0.5-3 1.8 0.3-1.3-1m-3.2 6c2-0.3 5.8 0.3 5.7 0-2 0-3.5-0.5-2.7-0.8 3-0.2 7.2-0.2 7 0l0.7 0.8-3 0.2 4 0.5-3 0.3 3.5 0.2-2 0.5 4.5 0.5-2.5-1 3 1.3 1.8 0.5h-2.8l3 0.2-3 0.5 3.8-0.5 1 0.3-2.8 0.2 4 0.3-2.2 0.5h2.2l0.3 0.5-3.5 0.2 2.2 0.3h-3c-2.7-0.3-13.9-1.3-12.5-1s12.8 1 11.5 1c-1.4 0-13.5-1-11.7-1s11.5-0.5 10.7-0.5c-0.9 0-13.2 0-13.2 0.2 0 0.3 13 1.3 12 1.3s-10.5 0-6.8 0.2c3.6 0.3 15.8 0.5 14.3 0.5s9.5 0 7.2-0.2c-2.2-0.3-6.2-0.5-4.5-0.5h4l-6.2-0.5h6.7l-1-0.5-4.7-1 3.2-0.3 2.5 1h4.5l-3-0.5 3 0.3-1 0.5 2.8-0.3-3 0.8 2.7-0.5v0.7h-2.7l2.7 0.3h-2.5 1.5l5 0.2-5 1 4 0.3h-5.7c-2.5-0.3-15.3 1.2-14.8 1.5 1.8 0 12.3-0.3 13.3 0 1 0.2 11 0.2 12 0 1-0.3 10.6-0.5 11.8-0.5s9.9-0.5 9.4-0.5-11 0.2-10.5-0.8l14-0.5h9.5c-4.5-0.7-21.7-0.2-22-0.5l15.3-0.7 4.2-0.3-3-0.2h3l-3.5-0.3 3.5-0.2h-9.5l4.5-0.3 5 0.3-2-0.5h3.3l-2.8-0.3 2-0.2-3-0.8h2.5l-2.5-0.5h3l-2.5-0.7h3l-2.5-0.8 3.5-0.2-1-1h0.8c-1.5-0.3-4.3 0.5-2.8 0s9.5-1 9.5-1c-1.7-0.3-7.5 0-7.2 0m4.2-0.3 0.8-3.7 1-1.3 2.8 2.3c-0.3-1-2.3-2.8-2.3-3 1-0.5 4.8-0.5 4.7-1-0.2-0.5-4.5 0.5-4.5 0.2m7-4.9c0.3-1.3-1-3.8-1-3.8l0.8-1c1.8 0 3.2 0.2 3 0-1.5-0.8-3-0.3-3-0.5v-0.5c2-0.8 4.7-1.8 3.7-2l-3.7 1.5m3.8-7.4c-0.1-1.6-0.8-3.6-0.6-3.6l2 2.2c-0.2-1.2-2-2.5-1.5-3.2l3.3-1.7c0.7-0.8-2.3 0.7-3.3 0.9l-0.5-0.5 2.8-3.2c0.2-0.8-2.3 2.2-2.8 2.7m3.6-9.5-2.1-3v-1.5l2.3 0.5c0.5-0.4-2.3-0.7-2.3-1-0.5-0.5 1.3-3.4 1-3.1l-1.5 2.6-0.5-0.7 0.5-1.5-1 0.5m1.6-9.5-3.8-2.4v-2.1c1.7-0.8 3.2-1.2 2.5-1.4-1.3 0.1-2.5 0.9-2.8 0.9l-0.7-0.8 1.7-3.5c-0.5-0.7-1.7 3.3-2 3.5m-2.2-10.2-5.3-1.5-0.7-1 3.2-3.2-3.7 2.4-0.5-0.5 2-3.5c0.5-1-2 3-2.3 3.3l-0.7-4c-0.3-0.3 0.3 4.2-0.3 3.2l-0.5-0.5-0.5 5.3-1.7-1-1.8-3 1.3 2.2-1.5-0.5m-5.3-9.4 2.8-2.6c1-0.7-2.3 2.5-2.5 2.6l4.7-0.6c2 0-2.5 0.8-4.2 1.5m-2.2-1.5-1.5-4.4c0.9 0.9 1.7 4.9 2 4.7 1.4-3.5 2.7-6.8 2.4-5.8l-2.2 6.1m-10.5-3.8 4-3.8c1.5-1.5-3.3 2.3-4.3 3.5l0.5-2.5-1.2 2.8 0.2-4.8c-0.2-1.5-0.5 3.3-0.7 4.8l-2.8-3.8c-1.5-1.7 1.5 2.5 1.8 3.8h-1.8l0.5-0.8-0.7 1.5m-4.3-1.2 2.3-3c-1 0.7-3 3.2-3 3l1.2-4.3c-0.2-0.7-1.5 3.8-1.7 3.8l-0.3-2.8c-0.2-0.5-0.2 2.8-0.2 3.3l-2.3-3.3 1.8 3.3m-5.5-0.5 4-5.3c1.2-1.7-2.8 3.5-4 5.3l0.7-3-1.2 2.5-0.7-4.8c-0.3-0.7 0 3.3 0 5l-1.8-2.5 1.5 2.8-2.5-1.8 1.7 2m-4.2-0.2 2.2-4.5c0-1-2 4.2-2.2 4.5l0.2-1.3-0.5 1.3-1.2-3.5c-0.5-1 0.7 3.2 0.7 3.7l-2.7-2.2 2.2 2.5-2.7-1.5 2.2 1.7-1.7 0.8 1 1.5-1.8-1.3 1 1.8-1.5-1 0.5 1m-3.5-3.3 3-2.2c0.3-0.5-1.7 2-2 2.5l0.3-4.3c-0.3-0.5-1 3.8-1.3 3.8l-0.2-3.3c-0.3-0.5-0.3 3.3-0.3 3.8l-2.7-5.8c-1-1.5 1.7 4.3 2.2 5.5l-1.7-1.2 0.7 1.5-3-1.8 2.8 2.3-1.8-0.2 1.3 0.2-1 1.2 2.2 1-1.2 1.3h2.7m-9.7-1 1.7-3.5c1-1.5-1.7 1.7-2.2 3.2l-0.7-5 0.2 5-1.3-2.7 0.8 3.2-4.3-3.7c-1.5-0.8 2.8 2.7 3.5 4l-3.7-0.3 3.2 0.8"/>
  <path class="cls-5" d="m33.6 14.7c0.5 0.7 3-1.1 2.8-1.1m6-1.5c0 1 1.7 2 2.2 1.5m1.5-0.7-0.7 0.7m1.7 0-0.5-0.5h-0.5m4 0.5 0.8 1.5v-1.2l1.2 0.8-0.5-1.6 1 1.3v-1.5l1 1.8-0.5-0.6m1.5-2.5 0.8 4 0.2-2.5 1 2.3-0.5-3.3 1 2.6v-2l1 2.4 0.6-3 0.7 2.3 1.5-2.8m4.5 0.3-1.8 2.5 1.8-1.3m2.7-1.2-1.5 0.5m1.5 2.3-3.7 0.7m3.7 0-2.7 0.5m2.7 0h1.8m1.2-0.5-0.7 0.2m3.3-2.2-2.1 1.5m6-2.8h-1m12 3.5-1.5-0.7m-6.5 0.2 1.5 1m17.3 8.5 2.5-0.7m-2.5 1 2.5-0.5m-2.5 1 1.7 1m-1.7 0.5 2.7-0.3m-4.5 1.3 3.3-1m-3.3 1.7 1.5 0.8 2.3 0.6m-3.8-0.6 1.8 1m8.5 7h1.5m-1 1.2 0.2 0.8m-3.5 1.7 3.3-1m-3.7 2 2.9 1.5m-2.9-0.7 1.2 0.5m1.2 40h1.3m-1.8 1h0.5m-7.2 8.5 1 0.5m-1 0.2 0.7 0.5m-85.2-54.7-3.3 1.7 2.5-1m1 0-0.7 1.5m-3.8-0.5-0.7 3.5m-1-1v1.5m2.5 8.8 0.7 0.5-1 0.5m-0.2 0.7-3.3 0.5m3.3 0.5-2 3.1 2-2.3m-2 5.2-0.8-1.5m0 8 2 1.5 1.5 0.8-2.2-0.3m2.2 1-2 1.5m3.5 10.5 0.5 1.3m0.3-0.5c1.2 0 1.7 3.2 2.2 3.5"/>
  <path class="cls-3" d="m51.4 15.9c0.7 0.5 1.7-0.8 1.2-1m3.3 1.2c0.7 0.8 1.7-0.2 1.2-0.5m0.5 0.8c0.5 0.5 2.3 0 1.5-0.5m2 0.2c0.6 1 1.8 0.3 1.8-0.2"/>
  <path class="cls-5" d="m54.1 112.6c3-0.2 13.3-0.7 14.8-0.5 1.5 0.3 11 0 11.7 0 0.6 0-10.2 0.8-12.2 0-2 0-10 0.5-14.3 0.5zm-17.5-1.7c3 0 13.8-0.5 14.8-0.3 1 0.3 12 0.3 13 0 1-0.2 18-0.5 19.5-0.5l3.5 0.5c-1.5 0.3-23-0.2-24 0-1 0.3-9 0.3-10.8 0.3-1.7 0-7.5-0.3-11.2 0h-4.8z"/>
  <path class="cls-2" d="m54.6 18.4 2 2.5m1.5-4.3v4l1.5-4m0.8 1-1.5 3.3 2-2.5m9.5-2.3-0.8 4.5 0.8 1.8 3-4.3-2.3 4.3 1 2 2.5-3.3-2.7 1.8m1.7-4.8c1 1.8 2.3 3 4.3 2.8m1.5-2.5 1.2 2.5v-4.3l0.5 4.5 2.3-6.2-2 6.2 1.5 1.3 3.7-2-4.2 1.7 1 0.8m8.7 0 2 1.7m2.8 3.5 2-3.2m-0.8 5.1 1.5 1.1m7 4.5 1.8 1.8m-1.8 8.7-0.7-1m-1.3-8-0.5 3.5 1.3-3.2m-2 2-0.3 1.2m-5.7 4.5-0.8 3.3 0.5 1.7 3.3-3.2-2.8 2.5m0 3.2 4.3 2-4-2.5h0.7m0.3 7v-1.7l1-3.3m-0.3 8.8 1.3-3.3m-1.3 5.5 2.3-2.5-2.5 2.3m2.5 1.2-2 1 4 0.6-4.5-0.6 1.2 0.5m2 2.3-2.7 2.5 2.2-4.5m-2.2 2.5 2.2 1.5m-3.5 3.5 3.5-3-3 4h3l-3.5 3.5 3.3-3.5-3.3 5 3.5-0.3-3.7 2.8 2.5 2.2-3.5-2.7 3.5 2.2-4.3 4.8 4.3-4-4.3 5.2 4.3-3.2-4.8 6 3-2-3.5 3 2.5-1.8-2.7 3 2.7-3-4 3 2.5-1-3 2.3 3-2.3-3 3 3-2-3 2.8 2.5-1.5-4.2 3 2.7-1.5-2.5 2m15.3-24-0.8 2 1.8-1.5-3.7 4 1.9-1.8-3.2 4.3 2.5-2.5-2.5 3.7 2.5-2.7-2.5 3.7 2.5-2.5m2.5-12.2 2 0.7-2.8 1 2.8-0.7-2.8 1.7h2-2m1.8-10.2-1.8 3.5 2.5-3.5-2.5 6.2 2.5-4-2.5 5.5 2-2.7-2 4.2 1.8-1m-1-16 2.7 0.5-2.7 1 2.7-1-2.7 1.5 2 1.3-2-0.8 1.7 3.8-2.5-3.3 1.8 2.8-1.8-1.8"/>
  <path class="cls-3" d="m46.1 24.1c-2 1-3 3.8-2.5 5.3m0.8 4.7c0.2 1.8-2.5 3-2.5 3.3m-11.3-3c-1 2.3-1.5 1.2-1 0.2m-3.5-1h-1.6l3.1-1-0.5-0.7 2 0.7-1.5-1.5-2.1-0.5 2.6 0.8 1-0.5-2.5-2.3 2.5 2.5-1-6.2 1.5 5.5 1-0.5v-1.3-1-1.2l-0.5 4 2-4-1 3.7h0.5c1.8 0.3-0.2 3.5-3 3.5l-0.5-0.5m7.5-3c-0.5 0.3-0.9 1.8-0.5 1 1-1.7 0.3-0.5 2.5 1l2 1.5-0.5-1.5 1.3-2.2-1.8-2.8 1.8 3.3 1.2-1-1.2 1.5 1.2 2v-1.5l-0.5-2 0.5 2 0.3 0.7 0.7-0.5 1.5-1.9-1 1.9 0.5 0.5 0.3 1.5h-1.8l3.3-0.5-2 0.5c-0.5 2-3 2.5-3 2.5l-0.5-1 0.5-1h-1.8-3v-0.5 1m2-0.5-4.5 4 4-3-5 5.5 4-3.5-4 4.5 2.5-2.2-1.5 3.7-2.7 2.5 3-3-1.3 3 2-3-0.5 1 1.5 1-2.5 4-2.2-2 1.2 1.5-1.5-0.2 1.5-0.3-1.5 5.5 1-4.7 1.5 0.2-2 1.8 3.5 0.2-4.5 4.3 0.3 4.2 0.7 7.5-1.2-2.7 1.2 6-1.5-0.8 1.5 2.8-0.5-2.8 1.5 4.5-2-1.2 3 5-5.2-5.8 4.7 9.8-2.5-1.3 4 6.5-3.2-2.7 3.7 6.2-3.2-3.5 4.2 7.8-5.2-3.3 3.7 3 0.5 2.5-2-2.2 2 3-1-0.8 2.5 3.3-3.5-2.5 4.5 4.7-6.7-5.5 4.2 4.8-4.5-3 6 4.7-5.5-3 5 3.8m4.5-5.3-4.5-4.2 4 3.5-5.5-8.5 5 5.7-5-10.7 5 7.2-5.5-9 2.5 0.8h-2.5l-2-9 1.5 3-2-8.3 2 11.3 1.5 4-0.5-4.5-2-10-0.5-4.8 2.8 2-1.3-2.7 2 2.5 1.5 1-1.5-0.3m-0.5 1h-5.7 5.2l1-0.5-1 1.8-4 3.2 1.5-1.2m4-2.8-1 6.8 0.5-4 1-2.5 3.5 4-2.5-3.5 1.5-0.8 1.5 3.5v-2.7-0.5l-2-0.8 2 1.3v3.2m0.3 11.8-2.8-0.5 3.8 1-3.8-0.5 3 4.2-2-2.7-3 5 2-4-3 4 3 2.7-3.5 1.8 5.5 4-5-3.5 3.5 4.2-2-3.2 3 3.2-2.5-0.7 3 2.7-2-2.7 2 2.2-1-1.5 2 2-1.5-2 1.5 0.8-1-1.5 2 2.2-1-2.2 2 2.2-1.5-2.2 2.5 2.7-1.5-2.5 2 2.5-1-2h2l-2-0.7v-1.3l-1 1.5v-1.5l-1 0.5 0.5-1.2-1 0.7 1-1h0.5m8.5-81-1.5 1.8h1l-1.5 1.5 1-0.5 1.8-1.3m-6.8 4.3-3 2.7 3-2.2-5.5 5.7 3.3-3.2-4.3 5.5 2-1.5-2 3.2 2-2.7-1.5 2.7-2.5 1.5 2-1.5m0 1.5-3.5 9.5 4-9.5-4.5 12 3 5-2.5-5.5 0.5 3-1 2-1.5 3.3-1 6.7v5.5l0.5 4.3 1 7m13-55.5-3 3.5-2 4 1-1.3v4.5l1-4.7 2.8-5.5m-5.8 62.7 2 4-0.2-3.5m0.2-12-1-2.5v2.5m1-26.5 0.3-3m-0.3 8.5-0.7 2.3-0.8-3.8m-0.2 13v-0.5m0.7 17.3-0.5-3.5m-0.5 15c-0.5 0.5 1.3 3.2 1.8 3.5m1.2-1.3-1-2.2m2 1.7-1-2.2m2 1.7-1-2.5m1.5 4 1 3.3-0.5-2.3-1 2.3m0.5-8.8 1 3.5m0.5-3.5v2.3l-2 3.2m2-9.5 2.5 8.5-1.5 3.5 1.5-1-4.5 3.5 2-2.2 1-1.3-1-2.5m-0.2-12.7 4.7 17.2-1-1.2 2.5 6.7-1.7-2.7 0.7 2.7-2-2.7 0.5 1.2-1-5.2 1 4.7-2.5-3.7 1 2.2-1.5 2 2 2.5-3-5 1.5-1-1-1.2 1 2.2-1 1.3 2 2.7-2-2-1-2-0.5 1.3-1.5-0.5 2 2.7 1.5 1-2.5-1.5-1-1.7m0.8-28.8c0 2 2.2 4.8 2.2 6.5m-1-8c0.5 3.5 2 6.3 2.5 8.8m-2-11 1.5 4.7-0.5-19.2-0.7 5.7m-0.3 5-0.2-4.5m-1.8-0.5v4m-1-4v5m-1.7-3.2v3m6.7-23.3 3.5-11.2-4 8.2 5-11m0-2.5-3.2 4.8 3.7-5.5-2 1.2 3-4.5m0.8 4.5-0.5 1.5m2.5 1.5 0.7 1.8m3.3 3.2v1m2.5-1.7 0.7 3.7m2.8-2 0.7 2.5-0.5-9.7m2.3 11.2 0.7 3.5-1.7-4.2m2.7 8.2 0.5 2.5v3.5m0 2.3 0.3 2m1.2-0.8v5m1-3v3m6.5-28.5 0.3 1.5m0.5-1.5v1.5m0 0.5 1 3-1-3 2 8.5-1-5.5 2 5.5v-4l0.2 3-0.2 4.5 0.2 1v-4.5 6l1-6-0.2 8.5 0.7-6.5v7.5-5l0.5-0.5-0.5 0.5v-0.5 0.5l0.5-1-0.5 0.5v-0.5 1l0.5-1-0.5 0.5 0.5-0.5v0.5-0.5 0.5l-0.5-0.5 0.5-0.5-0.5 0.5 0.5-0.5-0.5 0.5h0.5l-0.5-0.5h0.5l-0.5 0.5 0.5-0.5v0.5-0.5 1l0.5-1-0.5 1.5 0.5-1-0.5 1 0.5-1-0.5 1 0.5-0.5-0.5 0.5 0.5-0.5-0.5 1 0.5-1-1 1 0.5-0.5-0.5 0.5h0.5-0.5 0.5-0.5 0.5l-0.5 1 0.5-1-0.5 1 0.5-1-0.5 1 0.5-1-0.5 1 0.5-1-0.5 1 0.5-1-0.5 1 0.5-1-0.5 1 0.5-1-0.5 1 0.5-1v1.5-1.5l-0.5 1 0.5-1-0.5 1 0.5-1-0.5 1 0.5-1-0.5 1 0.5-1-0.5 1 0.5-1-0.5 1 0.5-1-0.5 1 0.5-1-0.5 1 0.5-1-0.5 1 0.5-1-0.5 1 0.5-1-0.5 1 0.5-1-0.5 1 0.5-1-0.5 1 0.5-1-0.5 1 0.5-1-0.5 1 0.5-1-0.5 1 0.5-1-0.5 1 0.5-1-0.5 1 0.5-1-0.5 1 0.5-1-0.5 1 0.5-1-0.5 1 0.5-1-0.5 1 0.5-1-0.5 1 0.5-1-0.5 1 0.5-1-0.5 1 0.5-1-0.5 1 0.5-1-0.5 1 0.5-1-0.5 1 0.5-1-0.5 1 0.5-1-0.5 1 0.5-1-0.5 1 0.5-1-0.5 1 0.5-1-0.5 1 0.5-1-0.5 1 0.5-1-0.5 1 0.5-1-0.5 1 0.5-1-0.5 1 0.5-1-0.5 1 0.5-1-0.5 1 0.5-1-0.5 1 0.5-1-0.5 1 0.5-1-0.5 1 0.5-1-0.5 1 0.5-1-0.5 1 0.5-1-0.5 1 0.5-1v8l0.5-4-0.5 5.5 1-5.5-0.5 5.5 0.5-1-1 5.5 2-7m-1.5-3.5 0.5-2.7m0 2h0.5m-1.5 13.7 2.3-7.7m-1.3 10.2 0.5-2-0.5 2 2-6.7-2 5.2 2-8.5-2.5 6.5 2.3-4.5m-1.3 8 0.5-2.7-1 3.2 1.5-2-2 5 2.5-5.7 0.3 2m-1.3 4.2h1l-3 3.8 3-5.3-3 6.8 3-2.5-4.2 8 2.7-6-3 10.2 3-5.7-4 7.5 4-1.8-5 4 3.5-2.5-4 7.3 2-3.8 1 0.8-3 2.2 6-7.5-5 8 4.5-5-5.5 8.3 7-6.8-8 8.5 7-5.5-6.5 6.5 7-6-7 8 6-5.5-5 6 6-5.2-4 5.2 4-3.5-6.5 4.5 6.5-3.5-5 4 5-4-4 4 4.5-2.7-4.2 2.7 3.7-1-3 1 4.5-1.5-3.5 1.5 4.5-1.5m-34.2-73-2.7-2 2.4 4-2.5-0.5 2.3 1.8m1.2-8.5c-1 1.7 0 5 0 6.7l1-3.7-0.5 4.2 2.8-3.7-2.3 3.7 3.8-2-3.3 2.8m-1.5 3.7c-1 2.3-0.2 4.8 0 6.5m-1.4-0.4 1.2 3.9 0.2-0.5 1.3-3.2-0.8 3.7 1.3 0.5 2.2-2-2.2 2m3.7 2-3.7 0.3h1.2v3.2l-1.2-1.7-1.8 1.2-2.5 2.3 1.5-3m0.8-3.8-3.8-2.2 2.5 2.2-4 1 4 0.5 1-0.2-1-0.8m1.5 4.5c-2.2 7.5 1.8 8.3 0.3 11.5l-0.3 1m-3.2-1 1.7 1.8 1 0.7-1-0.5-2 1.5h3m0 1.5-2.7 4 2.7-3.5h1.8l0.5 0.5 2.7 2-2.7-3m1.2-2 3.3-0.7-3.8 1 3.8-0.8-3.5 0.8m-1-1.5 2.2-2-3.5 3.2m0.5 8.5-0.5-7.5m-0.4 7.8c-0.3 2.5 1.2 3.7 0.9 3.7m0 3.5 0.5-3.5m0.3 5 3.2-2-2.5 2 3.8 2-3.3-0.7 3.3 0.7v1.3l0.2-3-0.2-3.3m-7.3 4-3 1.8 3-1 1 0.7-2.6 3.8 2.6-3.5 1 0.2v4.3-5h0.8l2.2 4-2.2-2.8m-3-3.5-2.8-1 3 1m-1 11.8 1.8 2h-2.5l2.7 1.5-1.5 2 2-1.5 0.8 1.5 0.5 5.7-0.5-5.7-1 2.7 1.5 3-0.8-1.2-2-4.5 1.5 4.5-2-1.3 1.5 2.3-3.5-13.8 0.8 10.5 0.5 1 0.7 0.5v1l-1.7-4.2m2.2-11m-6.5-38.3c-0.5 4-1 7-0.5 8.3m-3-19c-0.5 3-0.5 4.7 0 4.7m1.3-5-1.3 7.5-3 7.5 4-10.5-2.7 11.5m0 13m1.7 10 1 3m-3.7-0.7 0.3 2.2m-3.1 0.3c0.3 1 0 3.7 0 3.2m-4-1.5c-0.5 3 1.5 6.5 1.3 6.3m-4.3-36.8c-1 3 1.5 4 0 8-0.7 1.8 0-1.7 0-2m-3 24.8c0.5 3 4 5.2 4 6.2m-5-1c0.5 2.5 1.8 4.8 1.8 4.8m-5.3-51.5c0.3 0.7-0.2 2.7-0.2 2m-1 1.5c-1 2.7-1.5 3.2-1 2m-0.5-1c-0.8 3.2-1 3.2-0.5 1.2m0 14.8c0.5 2-0.3 3.2 0 2.7m-0.5-1c-0.3 3.3-1 3.3-0.5 1.8m-1 0.2c-0.5 1.3 0 1.3 0 0.3m-0.3-35c-0.5 0.7-1.2 3.2-0.7 2l0.7-2zm-2 6.5 3 4.2-4.5-1.2 3.8 2.7-3.3 1.8 4-0.3-4 3 4-2.5m-3.5 3 0.5 9.5-1.5-7.2 1.5 10.5-3.2-4.3 3.2 4.3-3.2 0.2 3.2 1-3.5 3.3 3.5-2-0.5 3.2-1.2 3.8 0.7-5.8 2.3 8.5-2.3-5.7v4.5l1-4.5v4.5l0.5-1.3v4l-2.2-2.2 4.2 4-4.2-1.8 4 4.3-3.8 0.2 4-0.7-2.5 2.7 3-1.2-0.5 4.5 0.5-2.5 4 5.5-4.5-5 5.5 7.2-5-4.7 4 5.5-3-2 3.8 2.5-2.8-0.3 3 1.5-1.5 0.8 2-1.5 1 0.7-0.5-1.5m-6.5-54.2c-1 1.7 0 3.2 0.5 4.2l-2.5-3.2c1 2.5 3.3 5.2 3.3 6.2l-2.3-1 0.3 10.5-0.8-3.7 0.3-2.5m-4.3 5.7v2.3m-1.5 13 0.3 2.5m0.7-2.5c-0.2 3 0.5 2.2 0 0m-3-29.8c-0.5 3 0.3 6-1 9.5l-0.2-3.5m0.2 4c2 0.3 1.5 4 0.3 4.5m-1.3 5.5 1 6.5-1.5-3.2 1.5 4.7-2.2-2 2.7 2.8-1 1.2 1 3.8-1.5-3.3 2.8 5-1.8-2.2 3 5.5-1-0.8 4 7.8-3.2-4.5m9.7-48.8-2 5.8m3.8-7-3 8.2m2.5 38.8c1.5 3.7 1 7 0.7 5.7-0.2-1.2-0.7-4-0.7-4m1.2-0.5 0.5 1.5m-2.2-22c-0.5 2.8-0.3 4.3 0 2.5v-2.5zm1.2-0.2c-0.2 2.7 0.5 5 0.3 3.7-0.3-1.2-0.3-3.7-0.3-3.7zm1.8-3.5 0.7 3m-0.7-0.3 1.2 8.5m-1.5 0.5 1.5 3.8v3l-1.7-1.3c1.2 2.8 5.2 7 4 7.5l3.2 6.5-2.5-1.7 4.5 7.7-2.5-2.5 3.5 5.3-2.5-1.8 3.5 4-2.5-2.2 2.5 4.2-0.5-0.2 0.5 1.2 1 1-2.5-1.5 2 2m-6-18.2 1.5 4m-0.5-7.3 1.5 7.3m-0.5-19.8c-1.2 4.8 1.3 5.8 0.8 8.5l-0.8 2.8m6-12.3m3.5 18.8m3.5-5.8 2.5 6.5m-0.5-8.2 1 5.7m-1.9-15.7 0.9 6.5m0.8-1.8 0.7 4.3m-1.2-37.8-0.5 3.5m3.2-3.5-0.2 1.8m-0.3 45.5c-0.5 2 0.8 3.2 0.8 3.7m-0.5-2.2 0.5 5 0.2 4-0.2-3.3v-3m-1.3-0.5v2.5m11-5c-0.5 4 0 8.5-0.5 8.5m1-48.2c0.3 1-0.5 3.2 0 2.2s-0.2-2.7 0-2.2zm1 11.5c0.3 2.5 0 5.7 0.3 4.5 0.2-1.3-0.3-5.3-0.3-4.5zm1.5 0c0.3 3 0.3 6 0.3 4.5s-0.3-5.3-0.3-4.5zm-1 10c-0.2 5.5-0.2 4 0.3 2.2 0-1.7-0.3-4-0.3-2.2zm2 4.2c0 4.5 0.3 3.8 0.3 0.8s-0.3-1.8-0.3-0.8zm-2.2 15.8c-0.5 3.2-0.5 9.5 0 6.2 0.5-3.2 0-7.2 0-6.2zm1.2-9.5c-0.2 3-1.2 12.5-0.7 10.2 0.5-2.2 0.7-13 0.7-10.2zm0.3-1.3c-0.3 5.3-1 18.3-1.5 20.5 1-1.7 2-15.2 1.5-20.5zm0.7 1.5c0 6.3 0 12.3-1 15.5m0.3-52.5c1 5 0.7 12.5 0 11 0.5-2.2-1-13.5 0-11zm0.7 3.3c0.3 7.7 0 10.7 0 6.7s-1-10.5 0-6.7zm-4.5 36.7-1 3m-0.5-3-0.5 2.3m0.3 5.2c-0.3 2 0 10 0.7 9 0.8-1 0.5-8 0-7m3.8-27.5m1 1.5v4.3m0.7-6v1.2m0-8.5v3m0 4.5v1m-4.2-52.2c2.7 0.7 4.2 2.7 5.5 5.5m-3.8-6c2.3 0.5 4 1.7 4.3 2.7m2-3.5c2.2 0.3 5.7 2.8 8.7 4.3m-1.2-5.5c0.7 1.5 1.7 2 1.7 2m-0.7 7c1.5 1.7 1.5 1.2 1.5 0.7 2.7 1 3.7 3.3 4.2 5.3s1.5 2 1.3 2.2c-1-1.7-2.3-6-4.3-6.5m4 0.3c1 2.5 2.3 2 3 5.2m-1.7-5.2c0.7 0 1.7 2 1.7 2m-2.5 8c0.5 2.5 3 2.7 3.3 3.7m1 0.3 0.5 1m-2.8 2.2m0 42.5 2-1.7m-2 4.7 2-2.2m-3.2-0.3-1.8 3.8m2.5-6.8-0.5 1.8m0.5-4.5h0.5m0.3-2.8 0.7 1.5m-0.7-5.2 0.7-0.5m-0.5-2.3-0.5 1m4.8 3.5c-0.5 3.5 0 2.8 0.2 0.8 0-2-0.2-0.8-0.2-0.8zm-2 4c-0.3 2.5 0.5-0.5 0-0.5m2.2 9.5c-1.5 1.8-2 4-1.2 3.3 0-1.5 2-3.8 1.2-3.3zm-13.7 7.8-2 2c0-3.3 2.2-3.8 2-7m1.5-7.3c1-0.5-0.3-3.2 0.5-5.7 0.7-2.5 0.5-4.5 0.5-4.5m-0.3-7c-0.7-1 0.3-3.8-0.2-5.8s0.5-3 0.2-2m-1-8.2 0.3-3.3m1.2-21.7c2 1 2.5 4.5 3.5 5.5m5-5.3 1.5 0.5m3.3 16-0.3-1.5-0.5 2.8m1-1v2.2m0 11c0.3 3-0.5 4 0 4m0.5 9.5c0.3 2.3-0.5 3.5 0.3 2.5 0.7-1-0.8-4-0.3-2.5zm-0.5 4.5c-1 2.8 0.3 5.5-0.2 5s0.2-6.2 0.2-5zm-23 15.3c-0.5 2.5-2.7 6.5-3.2 9.7l4.2-4.2-4.5 7 3-1.5-4 4.2 3.5-2.2-3.7 3.7 3-2-2 2.3 2.7-2.3 2.5-2.2-3 3.2 3.3-3-3.3 3.8 3.3-3.3-2.3 3 3-2.5-2 2 2-0.5-3 1.8 5.3-2.8-3.8 3.3 4.8-3.3-2.8 2.8 3.8-1.8-2 2.8 3.5-2.3-1.5 1.3 2.7-1.8-1.7 1.5 2.7-1-1 1 2.5-2 2.5-0.5m-18.7-10.5-1.3 3 2-3.5-2.5 5.3 3-6.5-3 9 4-9-4 9.7 5.5-12.2-4.5 11 4.5-16.8-4.5 13.5 3.8-17-3.5 10 3.5-13.5-3.3 10 1.8-19-1.5 18.3m4 1 0.7 2.5m-2.2-20.3c0 3.8 0.5 4.5 0.5 3s0-4.5-0.5-3zm0 4.3-1.5 4m3.7-8.3c0.3 3-0.2 5.3 0 4.3 0.3-1 0-5 0-4.3zm0 30.5c-1 2.8-3.2 5.5-2.7 4.5s4-7.7 3.7-7.5l-1 3zm1 0c-1.2 3.5-3.5 6.5-3.2 6 0.5-0.5 3.7-4.5 3.2-6zm8.8-60.2-2.8-1-3-0.8m5.3-3.7-4.8 2.5 0.8-2.3-1.5-5.5 1.7 5 0.8-2.2-2.3 3.7-0.5-3.2m5.8 6.5h-1.5"/>
</svg>