<svg xmlns="http://www.w3.org/2000/svg" viewBox="0 0 162 45">
<!-- SVG created with Arrow, by QuiverAI (https://quiver.ai) -->
  <style type="text/css">.cls-0 {fill:#F5F5F5;}
.cls-1 {fill:#608956;}
.cls-2 {fill:#85B877;}</style>
  <path class="cls-1" d="m158.7 22.7c-0.3 6.5-3 11.3-11.5 13.9-8 2.5-30.2 5.1-62.1 5.7-61.3 0.4-82.9-2.3-82.8-16.7-0.1-5.8 2.3-10.7 10-13.3 6.5-2.2 10.8-3.4 23.9-4.7 10.1-1 23.8-1.7 40.2-1.9 17.2-0.1 29.4 0.4 40.1 1.1 7 0.5 18.4 1.4 24.4 2.7 9.5 1.9 18 6 17.8 13.2z"/>
  <path class="cls-2" d="m157.3 16.2c-0.4 0-0.6 0.1-0.7 0.1-2.1-1.9-5.1-3.6-8.5-4.8v-0.1h-0.1c-0.1 0 0 0 0 0 0.2-1.8-1.5-3.7-3.1-3.6-1.2-0.1-2.9 0.4-3.7 1.4 0 0-0.1 0.1-0.1 0.2-3.7-0.8-6.9-1.2-8.7-1.4-4.5-0.5-9.9-1.2-17.3-1.7-0.3-1.7-1.6-3.2-3.4-3.2-1.3 0.2-2.5 1.1-3.2 2.6-7.5-0.4-15.8-0.7-27.6-1-0.6-1.3-1.7-2.6-3.4-2.5-1.3 0-2.3 1-3.1 2.3-5.7 0-11.2 0.1-18.1 0.4-0.7-1.2-1.9-2.1-3.4-2.1-1.4 0.1-2.9 0.9-4 2.6-7.5 0.4-12.9 0.8-21.5 2.1-0.6-1.1-1.7-2.1-3.2-2.1-1.5 0.1-2.8 1.7-3.2 3.2-3.4 0.6-6.4 1.3-9.2 2.3-6.9 2.4-9.9 6.1-9.9 11.5 0.2 7 6.8 10.3 13 11.8 13.6 3.4 35.3 4.5 62 4.9 9.6 0.1 23-0.5 38.3-1.3 8.5-0.4 18.7-1.4 27.5-3.2 8.6-1.8 15.8-5.1 15.9-11.7 0-0.4 0-0.9-0.1-1.4 1.3-0.9 1.9-1.9 1.8-3.2-0.3-1.4-1.8-2.1-3-2.1z"/>
</svg>