<svg xmlns="http://www.w3.org/2000/svg" viewBox="0 0 200 33.1">
<!-- SVG created with Arrow, by QuiverAI (https://quiver.ai) -->
  <style type="text/css">.cls-0 {fill:#A3C59E;}
.cls-1 {fill:#96B292;}
.cls-2 {fill:#A0BF98;}</style>
  <path class="cls-0" d="m192.2 2.1c-1.3 0-18.2 0.4-26.2 3.5-1.1 0.4-2.2 0.8-3.4 1.4-6.9-0.5-19.6-1.5-38.2-2.3-0.5-0.9-1.2-1.9-2.4-1.9-1 0-1.8 0.8-2.4 1.7-5.4-0.3-11.7-0.5-19.3-0.6h-1.6c-0.3-0.9-0.8-1.8-2-1.8-0.9 0-1.9 0.7-2.9 1.7-10.5-0.1-23.5 0-39.2 0.8l-6.5 0.4c-0.6-0.8-1.5-1.8-2.7-1.8-1.3 0-2.5 1.2-3.4 2.3-6.8 0.5-14 1.2-21.5 2.4-0.2 0.1-0.5 0.2-0.9 0.2-0.3-0.6-0.9-1.1-1.8-1.3-1 0-2 0.7-2.2 2.2-4.7 0.9-9.8 2.2-12 4.4-2-0.5-3.3 1-2.6 2.4 0.2 0.4 0.5 0.8 0.9 1 0.2 1.7-0.4 5.8 8.7 8 2.6 0.7 6.1 1.3 9.7 1.8 0.1 0.6 0.4 1.6 1.4 2 1.4 0.6 2.7-0.3 3.4-1.1 9.2 1 20.8 2 34.8 2.7 1 1.1 2.4 2.1 4.2 2 1 0 1.4-0.7 1.9-1.7 9.6 0.4 20.2 0.8 31.4 0.8 7.3 0 15.2-0.1 24.1-0.5 1 1.1 2.2 1.8 3.8 1.7 1.1 0 1.5-1 1.7-2.1 11.5-0.6 24.8-1.2 38.8-5.9 0.7-0.1 1.6 1.1 2.9 0.9 1.7-0.3 2.5-1.6 2.2-2.8l1.8-0.5c6.3 0.9 13.9 1.9 27 4.5l0.3 0.8v-25.6l-3.3 0.1c-0.3-0.9-1.1-1.7-2.2-1.6-0.8 0-1.6 0.8-2.3 1.6v0.2z"/>
  <path class="cls-1" d="m159 7.6c-5.8 2.7-18.4 9.7-44.1 10.7 20.6 1.1 31-2.1 40.6-6.8l7.1-3.5-3.6-0.4z"/>
  <path class="cls-1" d="m172.5 22.1 3.5 0.5c4.4-2.5 10.6-6 21.3-9.2-9.7 1.2-16.2 4.2-24.8 8.1v0.6z"/>
  <path class="cls-2" d="m178.6 13.4c-2.9 1.5 3.5 8.8 6.6 10.4l14.5 2.8 0.3-24.4h-3s-11.3 7.6-18.4 11.2z"/>
  <path class="cls-2" d="m178.6 13.4c-3.1 2.2 3.1-3.2 21.3-6v-5.5l-5.9 0.2s-11.4 7.9-15.4 11.3z"/>
</svg>